<?xml version="1.0" encoding="UTF-8"?>
<svg xmlns="http://www.w3.org/2000/svg" xmlns:xlink="http://www.w3.org/1999/xlink" width="409.858pt" height="279.593pt" viewBox="0 0 409.858 279.593" version="1.1">
<defs>
<g>
<symbol overflow="visible" id="glyph0-0">
<path style="stroke:none;" d=""/>
</symbol>
<symbol overflow="visible" id="glyph0-1">
<path style="stroke:none;" d="M 6.109375 0 L 7.90625 0 L 7.90625 -8.71875 L 6.109375 -8.71875 L 6.109375 -2.78125 L 2.65625 -8.71875 L 0.8125 -8.71875 L 0.8125 0 L 2.609375 0 L 2.609375 -6.03125 Z M 6.109375 0 "/>
</symbol>
<symbol overflow="visible" id="glyph0-2">
<path style="stroke:none;" d="M 3.59375 -6.5625 C 1.625 -6.5625 0.421875 -5.265625 0.421875 -3.140625 C 0.421875 -1.015625 1.625 0.28125 3.609375 0.28125 C 5.5625 0.28125 6.796875 -1.03125 6.796875 -3.09375 C 6.796875 -5.28125 5.625 -6.5625 3.59375 -6.5625 Z M 3.609375 -5.21875 C 4.53125 -5.21875 5.125 -4.390625 5.125 -3.125 C 5.125 -1.90625 4.5 -1.078125 3.609375 -1.078125 C 2.703125 -1.078125 2.09375 -1.90625 2.09375 -3.140625 C 2.09375 -4.375 2.703125 -5.21875 3.609375 -5.21875 Z M 3.609375 -5.21875 "/>
</symbol>
<symbol overflow="visible" id="glyph0-3">
<path style="stroke:none;" d="M 2.703125 -3.109375 L 4.9375 -3.109375 C 6.53125 -3.109375 7.5625 -4.25 7.5625 -6.015625 C 7.5625 -7.75 6.578125 -8.71875 4.75 -8.71875 L 0.90625 -8.71875 L 0.90625 0 L 2.703125 0 Z M 2.703125 -4.609375 L 2.703125 -7.21875 L 4.375 -7.21875 C 5.328125 -7.21875 5.765625 -6.796875 5.765625 -5.90625 C 5.765625 -5.015625 5.328125 -4.609375 4.375 -4.609375 Z M 2.703125 -4.609375 "/>
</symbol>
<symbol overflow="visible" id="glyph0-4">
<path style="stroke:none;" d="M 0.75 -6.453125 L 0.75 0 L 2.421875 0 L 2.421875 -3.4375 C 2.421875 -4.40625 2.921875 -4.90625 3.890625 -4.90625 C 4.078125 -4.90625 4.203125 -4.890625 4.421875 -4.859375 L 4.421875 -6.546875 C 4.328125 -6.5625 4.265625 -6.5625 4.21875 -6.5625 C 3.453125 -6.5625 2.78125 -6.0625 2.421875 -5.1875 L 2.421875 -6.453125 Z M 0.75 -6.453125 "/>
</symbol>
<symbol overflow="visible" id="glyph0-5">
<path style="stroke:none;" d="M 4.875 -6.453125 L 4.875 -5.46875 C 4.375 -6.234375 3.828125 -6.5625 3.078125 -6.5625 C 1.546875 -6.5625 0.40625 -5.0625 0.40625 -3.078125 C 0.40625 -1.0625 1.453125 0.28125 3.046875 0.28125 C 3.796875 0.28125 4.25 0.046875 4.875 -0.65625 L 4.875 0.21875 C 4.875 0.984375 4.296875 1.53125 3.453125 1.53125 C 2.828125 1.53125 2.40625 1.265625 2.265625 0.78125 L 0.53125 0.78125 C 0.546875 1.28125 0.734375 1.625 1.171875 1.984375 C 1.6875 2.40625 2.40625 2.609375 3.390625 2.609375 C 5.34375 2.609375 6.46875 1.734375 6.46875 0.21875 L 6.46875 -6.453125 Z M 3.4375 -5.15625 C 4.28125 -5.15625 4.90625 -4.296875 4.90625 -3.09375 C 4.90625 -1.921875 4.296875 -1.125 3.421875 -1.125 C 2.625 -1.125 2.078125 -1.921875 2.078125 -3.09375 C 2.078125 -4.3125 2.625 -5.15625 3.4375 -5.15625 Z M 3.4375 -5.15625 "/>
</symbol>
<symbol overflow="visible" id="glyph0-6">
<path style="stroke:none;" d="M 6.265625 -2.703125 C 6.28125 -2.84375 6.28125 -2.90625 6.28125 -2.984375 C 6.28125 -3.640625 6.1875 -4.234375 6.03125 -4.6875 C 5.59375 -5.859375 4.546875 -6.5625 3.25 -6.5625 C 1.40625 -6.5625 0.265625 -5.21875 0.265625 -3.0625 C 0.265625 -0.984375 1.390625 0.28125 3.21875 0.28125 C 4.65625 0.28125 5.828125 -0.546875 6.203125 -1.8125 L 4.546875 -1.8125 C 4.34375 -1.296875 3.890625 -1 3.28125 -1 C 2.796875 -1 2.421875 -1.203125 2.171875 -1.5625 C 2.015625 -1.8125 1.953125 -2.09375 1.9375 -2.703125 Z M 1.953125 -3.8125 C 2.0625 -4.796875 2.484375 -5.28125 3.234375 -5.28125 C 3.640625 -5.28125 4.03125 -5.078125 4.265625 -4.75 C 4.421875 -4.5 4.5 -4.25 4.53125 -3.8125 Z M 1.953125 -3.8125 "/>
</symbol>
<symbol overflow="visible" id="glyph0-7">
<path style="stroke:none;" d="M 6.03125 -4.375 C 6.015625 -5.734375 4.953125 -6.5625 3.234375 -6.5625 C 1.59375 -6.5625 0.578125 -5.734375 0.578125 -4.40625 C 0.578125 -3.984375 0.703125 -3.609375 0.9375 -3.359375 C 1.15625 -3.125 1.359375 -3.03125 1.984375 -2.828125 L 3.984375 -2.203125 C 4.40625 -2.0625 4.546875 -1.9375 4.546875 -1.671875 C 4.546875 -1.28125 4.078125 -1.046875 3.296875 -1.046875 C 2.875 -1.046875 2.515625 -1.125 2.3125 -1.265625 C 2.125 -1.40625 2.0625 -1.53125 1.984375 -1.875 L 0.34375 -1.875 C 0.390625 -0.46875 1.4375 0.28125 3.390625 0.28125 C 4.296875 0.28125 4.96875 0.078125 5.453125 -0.296875 C 5.921875 -0.6875 6.21875 -1.28125 6.21875 -1.90625 C 6.21875 -2.75 5.796875 -3.28125 4.953125 -3.53125 L 2.828125 -4.140625 C 2.359375 -4.296875 2.25 -4.390625 2.25 -4.65625 C 2.25 -5.015625 2.625 -5.25 3.21875 -5.25 C 4.015625 -5.25 4.40625 -4.953125 4.421875 -4.375 Z M 6.03125 -4.375 "/>
</symbol>
<symbol overflow="visible" id="glyph0-8">
<path style="stroke:none;" d="M 2.46875 -6.453125 L 0.796875 -6.453125 L 0.796875 0 L 2.46875 0 Z M 2.46875 -8.71875 L 0.796875 -8.71875 L 0.796875 -7.21875 L 2.46875 -7.21875 Z M 2.46875 -8.71875 "/>
</symbol>
<symbol overflow="visible" id="glyph0-9">
<path style="stroke:none;" d="M 0.75 -6.453125 L 0.75 0 L 2.421875 0 L 2.421875 -3.875 C 2.421875 -4.640625 2.96875 -5.140625 3.78125 -5.140625 C 4.5 -5.140625 4.859375 -4.75 4.859375 -3.984375 L 4.859375 0 L 6.53125 0 L 6.53125 -4.328125 C 6.53125 -5.75 5.734375 -6.5625 4.359375 -6.5625 C 3.484375 -6.5625 2.90625 -6.234375 2.421875 -5.515625 L 2.421875 -6.453125 Z M 0.75 -6.453125 "/>
</symbol>
<symbol overflow="visible" id="glyph0-10">
<path style="stroke:none;" d="M 4.84375 0 L 6.515625 0 L 6.515625 -8.71875 L 4.84375 -8.71875 L 4.84375 -5.625 C 4.421875 -6.265625 3.859375 -6.5625 3.0625 -6.5625 C 1.515625 -6.5625 0.34375 -5.078125 0.34375 -3.125 C 0.34375 -2.265625 0.609375 -1.375 1.046875 -0.75 C 1.484375 -0.125 2.265625 0.28125 3.0625 0.28125 C 3.859375 0.28125 4.421875 -0.03125 4.84375 -0.65625 Z M 3.4375 -5.15625 C 4.28125 -5.15625 4.84375 -4.34375 4.84375 -3.109375 C 4.84375 -1.9375 4.265625 -1.125 3.4375 -1.125 C 2.59375 -1.125 2.015625 -1.953125 2.015625 -3.125 C 2.015625 -4.328125 2.59375 -5.15625 3.4375 -5.15625 Z M 3.4375 -5.15625 "/>
</symbol>
<symbol overflow="visible" id="glyph0-11">
<path style="stroke:none;" d="M 0.921875 0 L 4.328125 0 C 5.65625 0 6.484375 -0.3125 7.078125 -1.015625 C 7.765625 -1.828125 8.140625 -3.015625 8.140625 -4.359375 C 8.140625 -5.703125 7.765625 -6.890625 7.078125 -7.703125 C 6.484375 -8.421875 5.671875 -8.71875 4.328125 -8.71875 L 0.921875 -8.71875 Z M 2.71875 -1.5 L 2.71875 -7.21875 L 4.328125 -7.21875 C 5.671875 -7.21875 6.34375 -6.28125 6.34375 -4.34375 C 6.34375 -2.4375 5.671875 -1.5 4.328125 -1.5 Z M 2.71875 -1.5 "/>
</symbol>
<symbol overflow="visible" id="glyph0-12">
<path style="stroke:none;" d="M 6.265625 -0.203125 C 5.96875 -0.484375 5.875 -0.65625 5.875 -0.984375 L 5.875 -4.578125 C 5.875 -5.890625 4.984375 -6.5625 3.234375 -6.5625 C 1.5 -6.5625 0.578125 -5.828125 0.484375 -4.328125 L 2.09375 -4.328125 C 2.171875 -5 2.453125 -5.21875 3.28125 -5.21875 C 3.921875 -5.21875 4.25 -5 4.25 -4.5625 C 4.25 -4.34375 4.140625 -4.15625 3.953125 -4.0625 C 3.734375 -3.9375 3.734375 -3.9375 2.90625 -3.8125 L 2.234375 -3.6875 C 0.953125 -3.484375 0.328125 -2.828125 0.328125 -1.65625 C 0.328125 -1.109375 0.484375 -0.65625 0.78125 -0.328125 C 1.15625 0.046875 1.71875 0.28125 2.296875 0.28125 C 3.015625 0.28125 3.671875 -0.03125 4.25 -0.640625 C 4.25 -0.3125 4.296875 -0.1875 4.453125 0 L 6.265625 0 Z M 4.25 -2.59375 C 4.25 -1.625 3.765625 -1.078125 2.921875 -1.078125 C 2.359375 -1.078125 2.015625 -1.375 2.015625 -1.859375 C 2.015625 -2.359375 2.265625 -2.59375 2.96875 -2.734375 L 3.53125 -2.84375 C 3.984375 -2.921875 4.046875 -2.953125 4.25 -3.046875 Z M 4.25 -2.59375 "/>
</symbol>
<symbol overflow="visible" id="glyph1-0">
<path style="stroke:none;" d=""/>
</symbol>
<symbol overflow="visible" id="glyph1-1">
<path style="stroke:none;" d="M 5.9375 -5.140625 C 5.9375 -6.5625 4.953125 -7.390625 3.28125 -7.390625 C 1.6875 -7.390625 0.703125 -6.5625 0.703125 -5.25 C 0.703125 -4.359375 1.171875 -3.8125 2.125 -3.5625 L 3.921875 -3.078125 C 4.84375 -2.84375 5.265625 -2.46875 5.265625 -1.90625 C 5.265625 -1.515625 5.046875 -1.109375 4.75 -0.890625 C 4.453125 -0.703125 4 -0.59375 3.40625 -0.59375 C 2.625 -0.59375 2.078125 -0.78125 1.734375 -1.203125 C 1.46875 -1.515625 1.34375 -1.859375 1.359375 -2.3125 L 0.484375 -2.3125 C 0.484375 -1.640625 0.625 -1.203125 0.90625 -0.8125 C 1.40625 -0.125 2.25 0.234375 3.34375 0.234375 C 4.21875 0.234375 4.921875 0.03125 5.390625 -0.328125 C 5.875 -0.71875 6.1875 -1.359375 6.1875 -2 C 6.1875 -2.890625 5.625 -3.546875 4.640625 -3.8125 L 2.828125 -4.3125 C 1.9375 -4.546875 1.625 -4.828125 1.625 -5.390625 C 1.625 -6.125 2.265625 -6.609375 3.25 -6.609375 C 4.40625 -6.609375 5.046875 -6.078125 5.0625 -5.140625 Z M 5.9375 -5.140625 "/>
</symbol>
<symbol overflow="visible" id="glyph1-2">
<path style="stroke:none;" d="M 2.53125 -5.21875 L 1.671875 -5.21875 L 1.671875 -6.65625 L 0.84375 -6.65625 L 0.84375 -5.21875 L 0.140625 -5.21875 L 0.140625 -4.546875 L 0.84375 -4.546875 L 0.84375 -0.59375 C 0.84375 -0.0625 1.203125 0.234375 1.859375 0.234375 C 2.046875 0.234375 2.25 0.203125 2.53125 0.15625 L 2.53125 -0.53125 C 2.421875 -0.515625 2.296875 -0.5 2.140625 -0.5 C 1.78125 -0.5 1.671875 -0.59375 1.671875 -0.96875 L 1.671875 -4.546875 L 2.53125 -4.546875 Z M 2.53125 -5.21875 "/>
</symbol>
<symbol overflow="visible" id="glyph1-3">
<path style="stroke:none;" d="M 5.328125 -0.484375 C 5.25 -0.46875 5.203125 -0.46875 5.15625 -0.46875 C 4.859375 -0.46875 4.703125 -0.625 4.703125 -0.875 L 4.703125 -3.953125 C 4.703125 -4.875 4.03125 -5.375 2.734375 -5.375 C 1.984375 -5.375 1.359375 -5.15625 1 -4.765625 C 0.765625 -4.5 0.671875 -4.203125 0.640625 -3.671875 L 1.484375 -3.671875 C 1.5625 -4.3125 1.9375 -4.609375 2.71875 -4.609375 C 3.453125 -4.609375 3.875 -4.328125 3.875 -3.828125 L 3.875 -3.609375 C 3.875 -3.265625 3.671875 -3.109375 3.015625 -3.03125 C 1.828125 -2.875 1.65625 -2.84375 1.328125 -2.71875 C 0.734375 -2.46875 0.421875 -2 0.421875 -1.3125 C 0.421875 -0.375 1.078125 0.234375 2.140625 0.234375 C 2.796875 0.234375 3.3125 0 3.90625 -0.53125 C 3.96875 -0.015625 4.234375 0.234375 4.765625 0.234375 C 4.9375 0.234375 5.0625 0.203125 5.328125 0.140625 Z M 3.875 -1.640625 C 3.875 -1.359375 3.796875 -1.203125 3.546875 -0.96875 C 3.203125 -0.65625 2.796875 -0.5 2.3125 -0.5 C 1.671875 -0.5 1.28125 -0.8125 1.28125 -1.328125 C 1.28125 -1.890625 1.65625 -2.15625 2.546875 -2.296875 C 3.421875 -2.40625 3.59375 -2.453125 3.875 -2.578125 Z M 3.875 -1.640625 "/>
</symbol>
<symbol overflow="visible" id="glyph1-4">
<path style="stroke:none;" d="M 5.109375 -2.328125 C 5.109375 -3.125 5.046875 -3.609375 4.90625 -4 C 4.5625 -4.859375 3.765625 -5.375 2.796875 -5.375 C 1.328125 -5.375 0.40625 -4.25 0.40625 -2.546875 C 0.40625 -0.828125 1.3125 0.234375 2.765625 0.234375 C 3.96875 0.234375 4.796875 -0.453125 5 -1.578125 L 4.171875 -1.578125 C 3.9375 -0.890625 3.46875 -0.53125 2.796875 -0.53125 C 2.265625 -0.53125 1.828125 -0.78125 1.546875 -1.21875 C 1.34375 -1.515625 1.28125 -1.8125 1.265625 -2.328125 Z M 1.28125 -3.015625 C 1.359375 -3.984375 1.9375 -4.609375 2.78125 -4.609375 C 3.59375 -4.609375 4.234375 -3.921875 4.234375 -3.078125 C 4.234375 -3.046875 4.234375 -3.03125 4.21875 -3.015625 Z M 1.28125 -3.015625 "/>
</symbol>
<symbol overflow="visible" id="glyph1-5">
<path style="stroke:none;" d="M 2.734375 -7.0625 C 2.078125 -7.0625 1.484375 -6.78125 1.109375 -6.296875 C 0.65625 -5.671875 0.421875 -4.71875 0.421875 -3.421875 C 0.421875 -1.03125 1.21875 0.234375 2.734375 0.234375 C 4.234375 0.234375 5.046875 -1.03125 5.046875 -3.359375 C 5.046875 -4.734375 4.828125 -5.65625 4.359375 -6.296875 C 4 -6.78125 3.40625 -7.0625 2.734375 -7.0625 Z M 2.734375 -6.296875 C 3.6875 -6.296875 4.15625 -5.328125 4.15625 -3.4375 C 4.15625 -1.4375 3.703125 -0.5 2.71875 -0.5 C 1.796875 -0.5 1.328125 -1.46875 1.328125 -3.40625 C 1.328125 -5.34375 1.796875 -6.296875 2.734375 -6.296875 Z M 2.734375 -6.296875 "/>
</symbol>
<symbol overflow="visible" id="glyph1-6">
<path style="stroke:none;" d="M 2.578125 -5.03125 L 2.578125 0 L 3.453125 0 L 3.453125 -7.0625 L 2.875 -7.0625 C 2.578125 -5.984375 2.375 -5.828125 1.015625 -5.65625 L 1.015625 -5.03125 Z M 2.578125 -5.03125 "/>
</symbol>
<symbol overflow="visible" id="glyph1-7">
<path style="stroke:none;" d="M 5.046875 -0.875 L 1.328125 -0.875 C 1.421875 -1.453125 1.734375 -1.8125 2.609375 -2.328125 L 3.59375 -2.859375 C 4.578125 -3.40625 5.09375 -4.125 5.09375 -5 C 5.09375 -5.578125 4.859375 -6.125 4.4375 -6.515625 C 4.015625 -6.890625 3.5 -7.0625 2.828125 -7.0625 C 1.9375 -7.0625 1.265625 -6.75 0.875 -6.15625 C 0.625 -5.765625 0.515625 -5.328125 0.5 -4.609375 L 1.375 -4.609375 C 1.40625 -5.09375 1.46875 -5.390625 1.578125 -5.609375 C 1.8125 -6.046875 2.265625 -6.296875 2.796875 -6.296875 C 3.59375 -6.296875 4.203125 -5.734375 4.203125 -4.96875 C 4.203125 -4.421875 3.875 -3.9375 3.234375 -3.578125 L 2.328125 -3.0625 C 0.84375 -2.21875 0.421875 -1.5625 0.34375 0 L 5.046875 0 Z M 5.046875 -0.875 "/>
</symbol>
<symbol overflow="visible" id="glyph1-8">
<path style="stroke:none;" d="M 2.359375 -7.265625 C 1.359375 -5.96875 0.734375 -4.140625 0.734375 -2.578125 C 0.734375 -1 1.359375 0.8125 2.359375 2.109375 L 2.90625 2.109375 C 2.03125 0.6875 1.53125 -0.984375 1.53125 -2.578125 C 1.53125 -4.171875 2.03125 -5.859375 2.90625 -7.265625 Z M 2.359375 -7.265625 "/>
</symbol>
<symbol overflow="visible" id="glyph1-9">
<path style="stroke:none;" d="M 0.921875 2.109375 C 1.921875 0.8125 2.546875 -1 2.546875 -2.578125 C 2.546875 -4.140625 1.921875 -5.96875 0.921875 -7.265625 L 0.375 -7.265625 C 1.25 -5.84375 1.75 -4.171875 1.75 -2.578125 C 1.75 -0.984375 1.25 0.703125 0.375 2.109375 Z M 0.921875 2.109375 "/>
</symbol>
<symbol overflow="visible" id="glyph2-0">
<path style="stroke:none;" d=""/>
</symbol>
<symbol overflow="visible" id="glyph2-1">
<path style="stroke:none;" d="M 4.171875 -1.75 L 4.390625 0 L 5.203125 0 L 4.40625 -5.8125 L 3.4375 -5.8125 L 0.140625 0 L 0.921875 0 L 1.90625 -1.75 Z M 4.09375 -2.359375 L 2.25 -2.359375 L 3.78125 -5.015625 Z M 4.09375 -2.359375 "/>
</symbol>
<symbol overflow="visible" id="glyph2-2">
<path style="stroke:none;" d="M 2.453125 -5.8125 L 1.78125 -5.8125 L 0.546875 0 L 1.21875 0 Z M 2.453125 -5.8125 "/>
</symbol>
<symbol overflow="visible" id="glyph2-3">
<path style="stroke:none;" d="M 2.078125 -4.171875 L 1.40625 -4.171875 L 0.53125 0 L 1.1875 0 Z M 2.4375 -5.8125 L 1.765625 -5.8125 L 1.578125 -4.984375 L 2.25 -4.984375 Z M 2.4375 -5.8125 "/>
</symbol>
<symbol overflow="visible" id="glyph2-4">
<path style="stroke:none;" d="M 2.28125 0 L 4.765625 -4.171875 L 4.046875 -4.171875 L 2.09375 -0.8125 L 1.703125 -4.171875 L 0.96875 -4.171875 L 1.5625 0 Z M 2.28125 0 "/>
</symbol>
<symbol overflow="visible" id="glyph2-5">
<path style="stroke:none;" d="M 4.484375 -1.859375 L 4.515625 -2 C 4.578125 -2.375 4.625 -2.71875 4.625 -2.9375 C 4.625 -3.703125 3.953125 -4.296875 3.09375 -4.296875 C 2.40625 -4.296875 1.734375 -3.96875 1.34375 -3.4375 C 0.96875 -2.9375 0.671875 -2.03125 0.671875 -1.375 C 0.671875 -0.953125 0.859375 -0.515625 1.15625 -0.21875 C 1.4375 0.0625 1.796875 0.1875 2.25 0.1875 C 3.203125 0.1875 4.03125 -0.40625 4.265625 -1.265625 L 3.609375 -1.265625 C 3.3125 -0.71875 2.890625 -0.4375 2.359375 -0.4375 C 1.734375 -0.4375 1.375 -0.828125 1.375 -1.5 C 1.375 -1.671875 1.375 -1.75 1.40625 -1.859375 Z M 1.546875 -2.4375 C 1.765625 -3.171875 2.34375 -3.6875 3 -3.6875 C 3.5625 -3.6875 3.921875 -3.296875 3.921875 -2.703125 C 3.921875 -2.625 3.90625 -2.5625 3.890625 -2.4375 Z M 1.546875 -2.4375 "/>
</symbol>
<symbol overflow="visible" id="glyph2-6">
<path style="stroke:none;" d="M 0.875 -0.828125 L 0.6875 0 L 1.15625 0 C 1.046875 0.65625 0.890625 0.875 0.5 0.875 L 0.4375 1.171875 C 0.96875 1.1875 1.359375 0.8125 1.5 0.125 L 1.703125 -0.828125 Z M 0.875 -0.828125 "/>
</symbol>
<symbol overflow="visible" id="glyph2-7">
<path style="stroke:none;" d="M 1.4375 -4.171875 L 0.5625 0 L 1.234375 0 L 1.71875 -2.296875 C 1.90625 -3.171875 2.46875 -3.71875 3.171875 -3.71875 C 3.578125 -3.71875 3.875 -3.4375 3.875 -3.078125 C 3.875 -3.03125 3.859375 -2.90625 3.828125 -2.78125 L 3.234375 0 L 3.90625 0 L 4.546875 -3 C 4.5625 -3.09375 4.578125 -3.203125 4.578125 -3.296875 C 4.578125 -3.90625 4.15625 -4.296875 3.484375 -4.296875 C 2.890625 -4.296875 2.359375 -4.078125 1.9375 -3.65625 L 2.046875 -4.171875 Z M 1.4375 -4.171875 "/>
</symbol>
<symbol overflow="visible" id="glyph2-8">
<path style="stroke:none;" d="M 3.0625 -4.296875 C 2.3125 -4.296875 1.671875 -3.953125 1.265625 -3.375 C 0.90625 -2.859375 0.640625 -1.984375 0.640625 -1.3125 C 0.640625 -0.421875 1.25 0.1875 2.140625 0.1875 C 2.90625 0.1875 3.515625 -0.125 3.953125 -0.734375 C 4.328125 -1.25 4.59375 -2.109375 4.59375 -2.8125 C 4.59375 -3.234375 4.4375 -3.640625 4.15625 -3.90625 C 3.875 -4.171875 3.515625 -4.296875 3.0625 -4.296875 Z M 2.953125 -3.6875 C 3.546875 -3.6875 3.890625 -3.296875 3.890625 -2.65625 C 3.890625 -2.1875 3.75 -1.671875 3.53125 -1.265625 C 3.234375 -0.71875 2.8125 -0.4375 2.25 -0.4375 C 1.6875 -0.4375 1.34375 -0.828125 1.34375 -1.46875 C 1.34375 -1.921875 1.46875 -2.453125 1.6875 -2.84375 C 1.984375 -3.390625 2.4375 -3.6875 2.953125 -3.6875 Z M 2.953125 -3.6875 "/>
</symbol>
<symbol overflow="visible" id="glyph2-9">
<path style="stroke:none;" d="M 2 -2.46875 L 3.8125 -2.46875 C 4.3125 -2.46875 4.6875 -2.59375 5.046875 -2.875 C 5.546875 -3.28125 5.84375 -3.875 5.84375 -4.53125 C 5.84375 -5.375 5.34375 -5.8125 4.359375 -5.8125 L 1.953125 -5.8125 L 0.71875 0 L 1.46875 0 Z M 2.140625 -3.109375 L 2.578125 -5.15625 L 4.125 -5.15625 C 4.734375 -5.15625 5.078125 -4.890625 5.078125 -4.375 C 5.078125 -4.109375 4.984375 -3.84375 4.796875 -3.609375 C 4.53125 -3.265625 4.1875 -3.109375 3.6875 -3.109375 Z M 2.140625 -3.109375 "/>
</symbol>
<symbol overflow="visible" id="glyph2-10">
<path style="stroke:none;" d="M 2.03125 -2.640625 L 4.796875 -2.640625 L 4.9375 -3.296875 L 2.171875 -3.296875 L 2.5625 -5.15625 L 5.71875 -5.15625 L 5.84375 -5.8125 L 1.953125 -5.8125 L 0.71875 0 L 1.46875 0 Z M 2.03125 -2.640625 "/>
</symbol>
<symbol overflow="visible" id="glyph2-11">
<path style="stroke:none;" d="M 5.625 -4.109375 C 5.671875 -4.328125 5.6875 -4.4375 5.6875 -4.546875 C 5.6875 -4.890625 5.515625 -5.265625 5.265625 -5.484375 C 4.9375 -5.78125 4.515625 -5.90625 3.890625 -5.90625 C 3.0625 -5.90625 2.421875 -5.671875 1.984375 -5.234375 C 1.671875 -4.890625 1.421875 -4.328125 1.421875 -3.921875 C 1.421875 -3.421875 1.765625 -3 2.296875 -2.84375 L 3.671875 -2.46875 C 4.296875 -2.28125 4.5625 -2.046875 4.5625 -1.671875 C 4.5625 -1.421875 4.421875 -1.109375 4.1875 -0.90625 C 3.859375 -0.609375 3.390625 -0.46875 2.75 -0.46875 C 1.859375 -0.46875 1.4375 -0.796875 1.4375 -1.515625 C 1.4375 -1.625 1.453125 -1.703125 1.46875 -1.84375 L 0.78125 -1.84375 C 0.71875 -1.640625 0.703125 -1.515625 0.703125 -1.34375 C 0.703125 -0.390625 1.421875 0.1875 2.625 0.1875 C 3.46875 0.1875 4.171875 -0.046875 4.640625 -0.484375 C 5.046875 -0.859375 5.328125 -1.4375 5.328125 -1.890625 C 5.328125 -2.09375 5.265625 -2.3125 5.140625 -2.515625 C 4.96875 -2.78125 4.734375 -2.953125 4.359375 -3.046875 L 2.984375 -3.4375 C 2.375 -3.625 2.1875 -3.78125 2.1875 -4.125 C 2.1875 -4.40625 2.296875 -4.65625 2.53125 -4.875 C 2.828125 -5.125 3.21875 -5.265625 3.75 -5.265625 C 4.1875 -5.265625 4.53125 -5.171875 4.703125 -5.015625 C 4.859375 -4.875 4.953125 -4.625 4.953125 -4.390625 C 4.953125 -4.3125 4.953125 -4.265625 4.921875 -4.109375 Z M 5.625 -4.109375 "/>
</symbol>
<symbol overflow="visible" id="glyph2-12">
<path style="stroke:none;" d="M 2.921875 -4.171875 L 2.203125 -4.171875 L 2.453125 -5.328125 L 1.78125 -5.328125 L 1.53125 -4.171875 L 0.96875 -4.171875 L 0.859375 -3.640625 L 1.421875 -3.640625 L 0.796875 -0.6875 C 0.78125 -0.609375 0.765625 -0.53125 0.765625 -0.453125 C 0.765625 -0.0625 1.046875 0.1875 1.484375 0.1875 C 1.640625 0.1875 1.890625 0.15625 2 0.125 L 2.125 -0.453125 C 1.875 -0.390625 1.84375 -0.390625 1.75 -0.390625 C 1.5625 -0.390625 1.453125 -0.484375 1.453125 -0.609375 C 1.453125 -0.625 1.46875 -0.671875 1.46875 -0.71875 L 2.09375 -3.640625 L 2.8125 -3.640625 Z M 2.921875 -4.171875 "/>
</symbol>
<symbol overflow="visible" id="glyph2-13">
<path style="stroke:none;" d="M 4.390625 -2.765625 L 4.40625 -2.890625 C 4.40625 -3.015625 4.421875 -3.09375 4.421875 -3.125 C 4.421875 -3.390625 4.265625 -3.703125 4.0625 -3.921875 C 3.8125 -4.171875 3.484375 -4.296875 3.03125 -4.296875 C 2.3125 -4.296875 1.671875 -4 1.25 -3.4375 C 0.875 -2.953125 0.609375 -2.09375 0.609375 -1.359375 C 0.609375 -0.984375 0.734375 -0.59375 0.953125 -0.3125 C 1.234375 0.03125 1.578125 0.1875 2.09375 0.1875 C 2.75 0.1875 3.296875 -0.046875 3.671875 -0.484375 C 3.875 -0.71875 4 -0.984375 4.125 -1.4375 L 3.453125 -1.4375 C 3.21875 -0.78125 2.78125 -0.4375 2.203125 -0.4375 C 1.65625 -0.4375 1.3125 -0.828125 1.3125 -1.4375 C 1.3125 -1.953125 1.46875 -2.5625 1.734375 -2.96875 C 2.03125 -3.4375 2.4375 -3.6875 2.921875 -3.6875 C 3.421875 -3.6875 3.734375 -3.40625 3.734375 -2.953125 C 3.734375 -2.90625 3.734375 -2.84375 3.71875 -2.765625 Z M 4.390625 -2.765625 "/>
</symbol>
<symbol overflow="visible" id="glyph2-14">
<path style="stroke:none;" d="M 3.84375 0 L 4.734375 -4.171875 L 4.0625 -4.171875 L 3.5625 -1.8125 C 3.375 -0.953125 2.8125 -0.390625 2.140625 -0.390625 C 1.703125 -0.390625 1.421875 -0.625 1.421875 -1 C 1.421875 -1.0625 1.4375 -1.140625 1.453125 -1.21875 L 2.078125 -4.171875 L 1.40625 -4.171875 L 0.71875 -0.953125 C 0.703125 -0.875 0.703125 -0.78125 0.703125 -0.6875 C 0.703125 -0.140625 1.109375 0.1875 1.796875 0.1875 C 2.421875 0.1875 2.875 -0.015625 3.34375 -0.453125 L 3.25 0 Z M 3.84375 0 "/>
</symbol>
<symbol overflow="visible" id="glyph2-15">
<path style="stroke:none;" d="M 1.4375 -4.171875 L 0.546875 0 L 1.21875 0 L 1.6875 -2.171875 C 1.890625 -3.140625 2.453125 -3.625 3.328125 -3.59375 L 3.46875 -4.265625 C 3.375 -4.28125 3.3125 -4.296875 3.21875 -4.296875 C 2.75 -4.296875 2.40625 -4.09375 1.90625 -3.515625 L 2.046875 -4.171875 Z M 1.4375 -4.171875 "/>
</symbol>
<symbol overflow="visible" id="glyph2-16">
<path style="stroke:none;" d="M 5.171875 -5.8125 L 4.515625 -5.8125 L 4.03125 -3.5625 C 3.78125 -4.09375 3.453125 -4.296875 2.890625 -4.296875 C 1.5625 -4.296875 0.578125 -3.03125 0.578125 -1.359375 C 0.578125 -0.421875 1.109375 0.1875 1.9375 0.1875 C 2.28125 0.1875 2.65625 0.078125 2.96875 -0.125 C 3.21875 -0.265625 3.3125 -0.375 3.421875 -0.609375 L 3.296875 0 L 3.9375 0 Z M 2.828125 -3.6875 C 3.421875 -3.6875 3.765625 -3.28125 3.765625 -2.609375 C 3.765625 -2.140625 3.640625 -1.65625 3.40625 -1.234375 C 3.09375 -0.703125 2.703125 -0.4375 2.21875 -0.4375 C 1.625 -0.4375 1.28125 -0.828125 1.28125 -1.515625 C 1.28125 -1.953125 1.421875 -2.46875 1.640625 -2.875 C 1.9375 -3.421875 2.3125 -3.6875 2.828125 -3.6875 Z M 2.828125 -3.6875 "/>
</symbol>
<symbol overflow="visible" id="glyph2-17">
<path style="stroke:none;" d="M 1.671875 -5.8125 L 0.4375 0 L 1.03125 0 L 1.15625 -0.625 C 1.265625 -0.375 1.34375 -0.265625 1.453125 -0.140625 C 1.671875 0.0625 1.984375 0.1875 2.34375 0.1875 C 2.875 0.1875 3.4375 -0.0625 3.796875 -0.4375 C 4.328125 -1 4.6875 -1.90625 4.6875 -2.734375 C 4.6875 -3.625 4.078125 -4.296875 3.28125 -4.296875 C 2.953125 -4.296875 2.59375 -4.203125 2.359375 -4.0625 C 2.21875 -3.96875 2.125 -3.875 1.875 -3.625 L 2.328125 -5.8125 Z M 3.046875 -3.6875 C 3.640625 -3.6875 3.984375 -3.265625 3.984375 -2.578125 C 3.984375 -2.125 3.84375 -1.625 3.625 -1.234375 C 3.296875 -0.6875 2.875 -0.4375 2.359375 -0.4375 C 1.8125 -0.4375 1.46875 -0.828125 1.46875 -1.453125 C 1.46875 -1.953125 1.625 -2.5 1.84375 -2.875 C 2.15625 -3.40625 2.578125 -3.6875 3.046875 -3.6875 Z M 3.046875 -3.6875 "/>
</symbol>
<symbol overflow="visible" id="glyph2-18">
<path style="stroke:none;" d="M 4.09375 -3.015625 C 4.140625 -3.171875 4.140625 -3.25 4.140625 -3.359375 C 4.140625 -3.90625 3.609375 -4.296875 2.84375 -4.296875 C 2.265625 -4.296875 1.78125 -4.125 1.453125 -3.8125 C 1.171875 -3.53125 0.984375 -3.125 0.984375 -2.75 C 0.984375 -2.265625 1.265625 -2.03125 2.078125 -1.8125 L 2.671875 -1.671875 C 2.9375 -1.59375 3.046875 -1.546875 3.125 -1.453125 C 3.171875 -1.390625 3.234375 -1.265625 3.234375 -1.1875 C 3.234375 -1.046875 3.09375 -0.8125 2.96875 -0.703125 C 2.765625 -0.53125 2.4375 -0.4375 2.09375 -0.4375 C 1.53125 -0.4375 1.234375 -0.640625 1.234375 -1.046875 C 1.234375 -1.09375 1.234375 -1.15625 1.25 -1.25 L 0.53125 -1.25 C 0.5 -1.0625 0.484375 -0.96875 0.484375 -0.84375 C 0.484375 -0.203125 1.046875 0.1875 1.96875 0.1875 C 3.15625 0.1875 3.921875 -0.4375 3.921875 -1.375 C 3.921875 -1.859375 3.671875 -2.125 2.96875 -2.296875 L 2.359375 -2.453125 C 1.90625 -2.5625 1.6875 -2.71875 1.6875 -2.921875 C 1.6875 -3.078125 1.78125 -3.28125 1.921875 -3.421875 C 2.109375 -3.609375 2.34375 -3.6875 2.703125 -3.6875 C 3.171875 -3.6875 3.4375 -3.5 3.4375 -3.1875 C 3.4375 -3.125 3.4375 -3.078125 3.421875 -3.015625 Z M 4.09375 -3.015625 "/>
</symbol>
<symbol overflow="visible" id="glyph2-19">
<path style="stroke:none;" d="M 4.1875 -4.171875 L 4.046875 -3.546875 C 3.921875 -3.8125 3.84375 -3.921875 3.671875 -4.0625 C 3.46875 -4.203125 3.21875 -4.296875 2.9375 -4.296875 C 2.328125 -4.296875 1.703125 -4 1.3125 -3.5 C 0.890625 -2.96875 0.59375 -2.078125 0.59375 -1.34375 C 0.59375 -0.46875 1.15625 0.140625 1.96875 0.140625 C 2.46875 0.140625 2.9375 -0.078125 3.34375 -0.5 L 3.3125 -0.34375 C 3.078125 0.734375 2.640625 1.15625 1.796875 1.15625 C 1.265625 1.15625 0.9375 0.953125 0.9375 0.59375 L 0.9375 0.484375 L 0.265625 0.484375 L 0.265625 0.578125 C 0.25 0.640625 0.25 0.6875 0.25 0.71875 C 0.25 1.34375 0.8125 1.734375 1.671875 1.734375 C 2.296875 1.734375 2.859375 1.546875 3.21875 1.203125 C 3.625 0.828125 3.828125 0.328125 4.046875 -0.671875 L 4.796875 -4.171875 Z M 2.890625 -3.6875 C 3.40625 -3.6875 3.734375 -3.296875 3.734375 -2.703125 C 3.734375 -2.203125 3.59375 -1.625 3.375 -1.234375 C 3.109375 -0.734375 2.640625 -0.4375 2.15625 -0.4375 C 1.625 -0.4375 1.296875 -0.84375 1.296875 -1.46875 C 1.296875 -1.9375 1.421875 -2.453125 1.65625 -2.875 C 1.9375 -3.390625 2.390625 -3.6875 2.890625 -3.6875 Z M 2.890625 -3.6875 "/>
</symbol>
<symbol overflow="visible" id="glyph2-20">
<path style="stroke:none;" d="M 4.40625 -0.40625 C 4.328125 -0.390625 4.296875 -0.390625 4.265625 -0.390625 C 4.0625 -0.390625 3.953125 -0.46875 3.953125 -0.625 C 3.953125 -0.65625 3.953125 -0.671875 3.96875 -0.703125 L 4.484375 -3.09375 C 4.53125 -3.3125 4.53125 -3.3125 4.53125 -3.390625 C 4.53125 -3.9375 3.96875 -4.296875 3.140625 -4.296875 C 2.03125 -4.296875 1.359375 -3.828125 1.203125 -2.9375 L 1.875 -2.9375 C 1.9375 -3.15625 2 -3.28125 2.109375 -3.390625 C 2.28125 -3.5625 2.625 -3.6875 2.96875 -3.6875 C 3.4375 -3.6875 3.8125 -3.46875 3.8125 -3.171875 C 3.8125 -3.140625 3.796875 -3.078125 3.796875 -3.015625 L 3.765625 -2.875 C 3.703125 -2.546875 3.546875 -2.46875 2.96875 -2.40625 C 1.890625 -2.3125 1.5625 -2.234375 1.171875 -1.984375 C 0.75 -1.71875 0.515625 -1.296875 0.515625 -0.84375 C 0.515625 -0.203125 0.953125 0.1875 1.671875 0.1875 C 1.9375 0.1875 2.28125 0.125 2.5625 0.03125 C 2.828125 -0.0625 2.9375 -0.140625 3.265625 -0.4375 L 3.265625 -0.34375 C 3.265625 -0.015625 3.484375 0.1875 3.875 0.1875 C 3.953125 0.1875 3.984375 0.1875 4.1875 0.140625 C 4.203125 0.125 4.25 0.125 4.296875 0.109375 Z M 3.4375 -1.3125 C 3.328125 -0.8125 2.625 -0.390625 1.921875 -0.390625 C 1.46875 -0.390625 1.21875 -0.578125 1.21875 -0.921875 C 1.21875 -1.171875 1.375 -1.4375 1.609375 -1.578125 C 1.796875 -1.703125 2.046875 -1.765625 2.4375 -1.828125 C 3.171875 -1.921875 3.25 -1.9375 3.59375 -2.0625 Z M 3.4375 -1.3125 "/>
</symbol>
<symbol overflow="visible" id="glyph3-0">
<path style="stroke:none;" d=""/>
</symbol>
<symbol overflow="visible" id="glyph3-1">
<path style="stroke:none;" d="M 3.5625 -2.90625 C 3.96875 -1.859375 4.453125 -0.34375 4.609375 -0.109375 C 4.765625 0.109375 4.859375 0.109375 5.140625 0.109375 L 5.359375 0.109375 C 5.453125 0.09375 5.46875 0.046875 5.46875 0.015625 C 5.46875 -0.015625 5.4375 -0.046875 5.40625 -0.078125 C 5.3125 -0.1875 5.25 -0.34375 5.1875 -0.53125 L 3.15625 -6.203125 C 2.9375 -6.78125 2.40625 -6.921875 1.9375 -6.921875 C 1.890625 -6.921875 1.75 -6.921875 1.75 -6.8125 C 1.75 -6.734375 1.828125 -6.703125 1.84375 -6.703125 C 2.171875 -6.65625 2.25 -6.59375 2.5 -5.90625 L 3.453125 -3.203125 L 0.703125 -0.46875 C 0.59375 -0.34375 0.53125 -0.296875 0.53125 -0.15625 C 0.53125 0.015625 0.671875 0.125 0.828125 0.125 C 0.984375 0.125 1.078125 0.015625 1.15625 -0.078125 Z M 3.5625 -2.90625 "/>
</symbol>
<symbol overflow="visible" id="glyph4-0">
<path style="stroke:none;" d=""/>
</symbol>
<symbol overflow="visible" id="glyph4-1">
<path style="stroke:none;" d="M 1.921875 -4.9375 C 1.453125 -4.9375 1.03125 -4.734375 0.78125 -4.390625 C 0.453125 -3.96875 0.296875 -3.296875 0.296875 -2.390625 C 0.296875 -0.71875 0.859375 0.15625 1.921875 0.15625 C 2.96875 0.15625 3.53125 -0.71875 3.53125 -2.34375 C 3.53125 -3.3125 3.375 -3.953125 3.046875 -4.390625 C 2.796875 -4.75 2.390625 -4.9375 1.921875 -4.9375 Z M 1.921875 -4.390625 C 2.578125 -4.390625 2.90625 -3.734375 2.90625 -2.40625 C 2.90625 -1 2.578125 -0.34375 1.90625 -0.34375 C 1.25 -0.34375 0.921875 -1.03125 0.921875 -2.390625 C 0.921875 -3.734375 1.25 -4.390625 1.921875 -4.390625 Z M 1.921875 -4.390625 "/>
</symbol>
<symbol overflow="visible" id="glyph4-2">
<path style="stroke:none;" d="M 1.8125 -3.515625 L 1.8125 0 L 2.421875 0 L 2.421875 -4.9375 L 2.015625 -4.9375 C 1.796875 -4.1875 1.65625 -4.078125 0.703125 -3.953125 L 0.703125 -3.515625 Z M 1.8125 -3.515625 "/>
</symbol>
<symbol overflow="visible" id="glyph4-3">
<path style="stroke:none;" d="M 3.53125 -0.609375 L 0.921875 -0.609375 C 0.984375 -1.015625 1.21875 -1.265625 1.8125 -1.625 L 2.515625 -2 C 3.203125 -2.375 3.5625 -2.890625 3.5625 -3.484375 C 3.5625 -3.90625 3.390625 -4.28125 3.09375 -4.546875 C 2.8125 -4.8125 2.453125 -4.9375 1.984375 -4.9375 C 1.359375 -4.9375 0.890625 -4.71875 0.609375 -4.296875 C 0.4375 -4.03125 0.359375 -3.734375 0.34375 -3.21875 L 0.96875 -3.21875 C 0.984375 -3.5625 1.03125 -3.765625 1.109375 -3.921875 C 1.265625 -4.21875 1.59375 -4.40625 1.953125 -4.40625 C 2.515625 -4.40625 2.9375 -4 2.9375 -3.484375 C 2.9375 -3.09375 2.703125 -2.75 2.265625 -2.5 L 1.625 -2.140625 C 0.59375 -1.546875 0.296875 -1.09375 0.234375 0 L 3.53125 0 Z M 3.53125 -0.609375 "/>
</symbol>
<symbol overflow="visible" id="glyph4-4">
<path style="stroke:none;" d="M 3.71875 -2.453125 L 0.34375 -2.453125 L 0.34375 -1.96875 L 3.71875 -1.96875 Z M 3.71875 -1.265625 L 0.34375 -1.265625 L 0.34375 -0.78125 L 3.71875 -0.78125 Z M 3.71875 -1.265625 "/>
</symbol>
<symbol overflow="visible" id="glyph4-5">
<path style="stroke:none;" d="M 1.640625 -5.078125 C 0.953125 -4.171875 0.515625 -2.90625 0.515625 -1.8125 C 0.515625 -0.703125 0.953125 0.5625 1.640625 1.484375 L 2.03125 1.484375 C 1.421875 0.484375 1.078125 -0.6875 1.078125 -1.8125 C 1.078125 -2.90625 1.421875 -4.09375 2.03125 -5.078125 Z M 1.640625 -5.078125 "/>
</symbol>
<symbol overflow="visible" id="glyph4-6">
<path style="stroke:none;" d="M 3.046875 -2.640625 C 3.046875 -3.359375 2.578125 -3.75 1.734375 -3.75 C 0.875 -3.75 0.328125 -3.3125 0.328125 -2.640625 C 0.328125 -2.0625 0.625 -1.796875 1.484375 -1.59375 L 2.03125 -1.453125 C 2.4375 -1.359375 2.59375 -1.21875 2.59375 -0.953125 C 2.59375 -0.609375 2.25 -0.375 1.734375 -0.375 C 1.421875 -0.375 1.15625 -0.46875 1.015625 -0.625 C 0.921875 -0.71875 0.890625 -0.828125 0.84375 -1.09375 L 0.234375 -1.09375 C 0.265625 -0.25 0.734375 0.15625 1.6875 0.15625 C 2.609375 0.15625 3.203125 -0.296875 3.203125 -1 C 3.203125 -1.546875 2.890625 -1.84375 2.171875 -2.015625 L 1.609375 -2.140625 C 1.140625 -2.265625 0.9375 -2.40625 0.9375 -2.671875 C 0.9375 -3 1.234375 -3.21875 1.703125 -3.21875 C 2.171875 -3.21875 2.421875 -3.015625 2.4375 -2.640625 Z M 3.046875 -2.640625 "/>
</symbol>
<symbol overflow="visible" id="glyph4-7">
<path style="stroke:none;" d="M 1.890625 -3.75 C 0.875 -3.75 0.25 -3.03125 0.25 -1.796875 C 0.25 -0.578125 0.859375 0.15625 1.90625 0.15625 C 2.921875 0.15625 3.546875 -0.578125 3.546875 -1.765625 C 3.546875 -3.03125 2.953125 -3.75 1.890625 -3.75 Z M 1.90625 -3.21875 C 2.5625 -3.21875 2.953125 -2.6875 2.953125 -1.78125 C 2.953125 -0.921875 2.546875 -0.375 1.90625 -0.375 C 1.25 -0.375 0.859375 -0.90625 0.859375 -1.796875 C 0.859375 -2.671875 1.25 -3.21875 1.90625 -3.21875 Z M 1.90625 -3.21875 "/>
</symbol>
<symbol overflow="visible" id="glyph4-8">
<path style="stroke:none;" d="M 0.484375 -3.65625 L 0.484375 0.53125 C 0.484375 0.890625 0.375 1.015625 0.015625 1.015625 C 0 1.015625 0 1.015625 -0.125 1 L -0.125 1.5 C -0.0625 1.515625 -0.015625 1.515625 0.0625 1.515625 C 0.71875 1.515625 1.0625 1.25 1.0625 0.765625 L 1.0625 -3.65625 Z M 1.0625 -5.078125 L 0.484375 -5.078125 L 0.484375 -4.34375 L 1.0625 -4.34375 Z M 1.0625 -5.078125 "/>
</symbol>
<symbol overflow="visible" id="glyph4-9">
<path style="stroke:none;" d="M 3.359375 0 L 3.359375 -3.65625 L 2.78125 -3.65625 L 2.78125 -1.578125 C 2.78125 -0.84375 2.390625 -0.34375 1.78125 -0.34375 C 1.328125 -0.34375 1.03125 -0.625 1.03125 -1.0625 L 1.03125 -3.65625 L 0.453125 -3.65625 L 0.453125 -0.84375 C 0.453125 -0.234375 0.90625 0.15625 1.609375 0.15625 C 2.15625 0.15625 2.5 -0.03125 2.84375 -0.515625 L 2.84375 0 Z M 3.359375 0 "/>
</symbol>
<symbol overflow="visible" id="glyph4-10">
<path style="stroke:none;" d="M 0.484375 -3.65625 L 0.484375 0 L 1.0625 0 L 1.0625 -1.890625 C 1.0625 -2.421875 1.203125 -2.765625 1.484375 -2.96875 C 1.65625 -3.09375 1.828125 -3.140625 2.234375 -3.140625 L 2.234375 -3.734375 C 2.140625 -3.75 2.09375 -3.75 2.015625 -3.75 C 1.640625 -3.75 1.359375 -3.53125 1.015625 -2.984375 L 1.015625 -3.65625 Z M 0.484375 -3.65625 "/>
</symbol>
<symbol overflow="visible" id="glyph4-11">
<path style="stroke:none;" d="M 0.484375 -3.65625 L 0.484375 0 L 1.078125 0 L 1.078125 -2.015625 C 1.078125 -2.765625 1.46875 -3.25 2.0625 -3.25 C 2.515625 -3.25 2.8125 -2.96875 2.8125 -2.53125 L 2.8125 0 L 3.390625 0 L 3.390625 -2.765625 C 3.390625 -3.359375 2.9375 -3.75 2.234375 -3.75 C 1.6875 -3.75 1.34375 -3.546875 1.03125 -3.03125 L 1.03125 -3.65625 Z M 0.484375 -3.65625 "/>
</symbol>
<symbol overflow="visible" id="glyph4-12">
<path style="stroke:none;" d="M 1.765625 -3.65625 L 1.171875 -3.65625 L 1.171875 -4.65625 L 0.59375 -4.65625 L 0.59375 -3.65625 L 0.09375 -3.65625 L 0.09375 -3.171875 L 0.59375 -3.171875 L 0.59375 -0.421875 C 0.59375 -0.046875 0.84375 0.15625 1.296875 0.15625 C 1.4375 0.15625 1.578125 0.140625 1.765625 0.109375 L 1.765625 -0.375 C 1.6875 -0.359375 1.609375 -0.34375 1.484375 -0.34375 C 1.234375 -0.34375 1.171875 -0.421875 1.171875 -0.671875 L 1.171875 -3.171875 L 1.765625 -3.171875 Z M 1.765625 -3.65625 "/>
</symbol>
<symbol overflow="visible" id="glyph4-13">
<path style="stroke:none;" d="M 1.046875 -3.65625 L 0.46875 -3.65625 L 0.46875 0 L 1.046875 0 Z M 1.046875 -5.078125 L 0.453125 -5.078125 L 0.453125 -4.34375 L 1.046875 -4.34375 Z M 1.046875 -5.078125 "/>
</symbol>
<symbol overflow="visible" id="glyph4-14">
<path style="stroke:none;" d="M 0.484375 -3.65625 L 0.484375 0 L 1.078125 0 L 1.078125 -2.296875 C 1.078125 -2.828125 1.453125 -3.25 1.9375 -3.25 C 2.359375 -3.25 2.609375 -2.984375 2.609375 -2.515625 L 2.609375 0 L 3.1875 0 L 3.1875 -2.296875 C 3.1875 -2.828125 3.578125 -3.25 4.046875 -3.25 C 4.46875 -3.25 4.71875 -2.96875 4.71875 -2.515625 L 4.71875 0 L 5.3125 0 L 5.3125 -2.734375 C 5.3125 -3.390625 4.9375 -3.75 4.25 -3.75 C 3.765625 -3.75 3.46875 -3.609375 3.125 -3.203125 C 2.90625 -3.59375 2.625 -3.75 2.140625 -3.75 C 1.65625 -3.75 1.34375 -3.578125 1.03125 -3.140625 L 1.03125 -3.65625 Z M 0.484375 -3.65625 "/>
</symbol>
<symbol overflow="visible" id="glyph4-15">
<path style="stroke:none;" d="M 3.578125 -1.625 C 3.578125 -2.1875 3.53125 -2.515625 3.421875 -2.796875 C 3.1875 -3.390625 2.640625 -3.75 1.953125 -3.75 C 0.9375 -3.75 0.28125 -2.96875 0.28125 -1.78125 C 0.28125 -0.578125 0.90625 0.15625 1.9375 0.15625 C 2.78125 0.15625 3.359375 -0.3125 3.5 -1.109375 L 2.90625 -1.109375 C 2.75 -0.625 2.421875 -0.375 1.953125 -0.375 C 1.59375 -0.375 1.28125 -0.546875 1.078125 -0.84375 C 0.9375 -1.0625 0.890625 -1.265625 0.890625 -1.625 Z M 0.90625 -2.109375 C 0.953125 -2.78125 1.359375 -3.21875 1.9375 -3.21875 C 2.515625 -3.21875 2.953125 -2.75 2.953125 -2.140625 C 2.953125 -2.125 2.953125 -2.125 2.953125 -2.109375 Z M 0.90625 -2.109375 "/>
</symbol>
<symbol overflow="visible" id="glyph4-16">
<path style="stroke:none;" d="M 0.640625 1.484375 C 1.34375 0.5625 1.78125 -0.703125 1.78125 -1.796875 C 1.78125 -2.90625 1.34375 -4.171875 0.640625 -5.078125 L 0.265625 -5.078125 C 0.875 -4.078125 1.21875 -2.90625 1.21875 -1.796875 C 1.21875 -0.6875 0.875 0.484375 0.265625 1.484375 Z M 0.640625 1.484375 "/>
</symbol>
<symbol overflow="visible" id="glyph5-0">
<path style="stroke:none;" d=""/>
</symbol>
<symbol overflow="visible" id="glyph5-1">
<path style="stroke:none;" d="M 3.65625 -5.21875 L 2.765625 -5.21875 L 3.078125 -6.65625 L 2.234375 -6.65625 L 1.921875 -5.21875 L 1.21875 -5.21875 L 1.078125 -4.5625 L 1.78125 -4.5625 L 1 -0.875 C 0.984375 -0.765625 0.96875 -0.65625 0.96875 -0.5625 C 0.96875 -0.0625 1.3125 0.234375 1.859375 0.234375 C 2.046875 0.234375 2.359375 0.203125 2.5 0.15625 L 2.65625 -0.5625 C 2.359375 -0.5 2.296875 -0.484375 2.1875 -0.484375 C 1.96875 -0.484375 1.828125 -0.59375 1.828125 -0.75 C 1.828125 -0.78125 1.828125 -0.84375 1.84375 -0.890625 L 2.625 -4.5625 L 3.515625 -4.5625 Z M 3.65625 -5.21875 "/>
</symbol>
<symbol overflow="visible" id="glyph5-2">
<path style="stroke:none;" d="M 5.125 -3.765625 C 5.171875 -3.984375 5.1875 -4.0625 5.1875 -4.203125 C 5.1875 -4.890625 4.515625 -5.375 3.546875 -5.375 C 2.84375 -5.375 2.234375 -5.15625 1.828125 -4.78125 C 1.46875 -4.421875 1.21875 -3.90625 1.21875 -3.4375 C 1.21875 -2.828125 1.578125 -2.546875 2.609375 -2.265625 L 3.34375 -2.078125 C 3.671875 -2 3.8125 -1.9375 3.90625 -1.828125 C 3.984375 -1.734375 4.03125 -1.578125 4.03125 -1.5 C 4.03125 -1.3125 3.875 -1 3.71875 -0.875 C 3.46875 -0.671875 3.046875 -0.53125 2.609375 -0.53125 C 1.921875 -0.53125 1.53125 -0.8125 1.53125 -1.3125 C 1.53125 -1.359375 1.546875 -1.453125 1.5625 -1.5625 L 0.671875 -1.5625 C 0.625 -1.328125 0.609375 -1.203125 0.609375 -1.046875 C 0.609375 -0.25 1.3125 0.234375 2.46875 0.234375 C 3.953125 0.234375 4.921875 -0.53125 4.921875 -1.71875 C 4.921875 -2.328125 4.578125 -2.65625 3.703125 -2.875 L 2.953125 -3.0625 C 2.390625 -3.203125 2.109375 -3.40625 2.109375 -3.65625 C 2.109375 -3.859375 2.21875 -4.109375 2.40625 -4.28125 C 2.640625 -4.5 2.9375 -4.609375 3.375 -4.609375 C 3.96875 -4.609375 4.296875 -4.375 4.296875 -3.984375 C 4.296875 -3.921875 4.296875 -3.84375 4.28125 -3.765625 Z M 5.125 -3.765625 "/>
</symbol>
<symbol overflow="visible" id="glyph6-0">
<path style="stroke:none;" d=""/>
</symbol>
<symbol overflow="visible" id="glyph6-1">
<path style="stroke:none;" d="M 5.140625 -5.8125 L 4.453125 -5.8125 L 4.453125 -1.0625 L 1.40625 -5.8125 L 0.609375 -5.8125 L 0.609375 0 L 1.3125 0 L 1.3125 -4.703125 L 4.3125 0 L 5.140625 0 Z M 5.140625 -5.8125 "/>
</symbol>
<symbol overflow="visible" id="glyph6-2">
<path style="stroke:none;" d="M 2.171875 -4.296875 C 1 -4.296875 0.28125 -3.453125 0.28125 -2.0625 C 0.28125 -0.65625 0.984375 0.1875 2.171875 0.1875 C 3.34375 0.1875 4.0625 -0.65625 4.0625 -2.03125 C 4.0625 -3.46875 3.375 -4.296875 2.171875 -4.296875 Z M 2.171875 -3.6875 C 2.921875 -3.6875 3.375 -3.0625 3.375 -2.03125 C 3.375 -1.046875 2.90625 -0.4375 2.171875 -0.4375 C 1.4375 -0.4375 0.984375 -1.046875 0.984375 -2.0625 C 0.984375 -3.0625 1.4375 -3.6875 2.171875 -3.6875 Z M 2.171875 -3.6875 "/>
</symbol>
<symbol overflow="visible" id="glyph6-3">
<path style="stroke:none;" d="M 0.5625 -4.171875 L 0.5625 0 L 1.234375 0 L 1.234375 -2.296875 C 1.234375 -3.15625 1.671875 -3.71875 2.359375 -3.71875 C 2.890625 -3.71875 3.21875 -3.390625 3.21875 -2.890625 L 3.21875 0 L 3.875 0 L 3.875 -3.15625 C 3.875 -3.84375 3.359375 -4.296875 2.5625 -4.296875 C 1.9375 -4.296875 1.53125 -4.0625 1.171875 -3.46875 L 1.171875 -4.171875 Z M 0.5625 -4.171875 "/>
</symbol>
<symbol overflow="visible" id="glyph6-4">
<path style="stroke:none;" d="M 2.265625 -2.484375 L 0.359375 -2.484375 L 0.359375 -1.90625 L 2.265625 -1.90625 Z M 2.265625 -2.484375 "/>
</symbol>
<symbol overflow="visible" id="glyph6-5">
<path style="stroke:none;" d="M 2.03125 -4.171875 L 1.34375 -4.171875 L 1.34375 -5.328125 L 0.671875 -5.328125 L 0.671875 -4.171875 L 0.109375 -4.171875 L 0.109375 -3.640625 L 0.671875 -3.640625 L 0.671875 -0.484375 C 0.671875 -0.0625 0.96875 0.1875 1.484375 0.1875 C 1.640625 0.1875 1.796875 0.171875 2.03125 0.125 L 2.03125 -0.4375 C 1.9375 -0.40625 1.828125 -0.390625 1.703125 -0.390625 C 1.421875 -0.390625 1.34375 -0.484375 1.34375 -0.765625 L 1.34375 -3.640625 L 2.03125 -3.640625 Z M 2.03125 -4.171875 "/>
</symbol>
<symbol overflow="visible" id="glyph6-6">
<path style="stroke:none;" d="M 4.265625 -0.390625 C 4.1875 -0.375 4.15625 -0.375 4.125 -0.375 C 3.890625 -0.375 3.765625 -0.5 3.765625 -0.703125 L 3.765625 -3.15625 C 3.765625 -3.890625 3.21875 -4.296875 2.1875 -4.296875 C 1.578125 -4.296875 1.078125 -4.125 0.8125 -3.8125 C 0.609375 -3.59375 0.53125 -3.359375 0.515625 -2.9375 L 1.1875 -2.9375 C 1.25 -3.453125 1.546875 -3.6875 2.171875 -3.6875 C 2.765625 -3.6875 3.09375 -3.453125 3.09375 -3.0625 L 3.09375 -2.890625 C 3.09375 -2.609375 2.9375 -2.484375 2.40625 -2.421875 C 1.46875 -2.296875 1.328125 -2.265625 1.0625 -2.171875 C 0.578125 -1.96875 0.328125 -1.59375 0.328125 -1.046875 C 0.328125 -0.296875 0.859375 0.1875 1.703125 0.1875 C 2.234375 0.1875 2.65625 0 3.125 -0.4375 C 3.171875 -0.015625 3.375 0.1875 3.8125 0.1875 C 3.9375 0.1875 4.046875 0.171875 4.265625 0.109375 Z M 3.09375 -1.3125 C 3.09375 -1.09375 3.03125 -0.953125 2.84375 -0.765625 C 2.5625 -0.53125 2.234375 -0.390625 1.84375 -0.390625 C 1.328125 -0.390625 1.03125 -0.640625 1.03125 -1.0625 C 1.03125 -1.5 1.328125 -1.734375 2.03125 -1.828125 C 2.734375 -1.921875 2.875 -1.953125 3.09375 -2.0625 Z M 3.09375 -1.3125 "/>
</symbol>
<symbol overflow="visible" id="glyph6-7">
<path style="stroke:none;" d="M 0.546875 -4.171875 L 0.546875 0 L 1.21875 0 L 1.21875 -2.171875 C 1.21875 -2.765625 1.375 -3.15625 1.6875 -3.390625 C 1.890625 -3.53125 2.09375 -3.578125 2.5625 -3.59375 L 2.5625 -4.265625 C 2.453125 -4.28125 2.390625 -4.296875 2.296875 -4.296875 C 1.875 -4.296875 1.546875 -4.046875 1.15625 -3.421875 L 1.15625 -4.171875 Z M 0.546875 -4.171875 "/>
</symbol>
<symbol overflow="visible" id="glyph6-8">
<path style="stroke:none;" d="M 3.28125 -4.171875 L 3.28125 -3.5625 C 2.953125 -4.0625 2.546875 -4.296875 2.015625 -4.296875 C 0.953125 -4.296875 0.234375 -3.375 0.234375 -2.015625 C 0.234375 -1.328125 0.421875 -0.765625 0.75 -0.375 C 1.0625 -0.03125 1.515625 0.1875 1.953125 0.1875 C 2.484375 0.1875 2.84375 -0.046875 3.21875 -0.5625 L 3.21875 -0.34375 C 3.21875 0.21875 3.140625 0.5625 2.984375 0.78125 C 2.8125 1.03125 2.46875 1.171875 2.0625 1.171875 C 1.75 1.171875 1.484375 1.09375 1.296875 0.953125 C 1.140625 0.84375 1.078125 0.71875 1.046875 0.484375 L 0.359375 0.484375 C 0.4375 1.265625 1.046875 1.734375 2.03125 1.734375 C 2.65625 1.734375 3.1875 1.53125 3.453125 1.203125 C 3.78125 0.828125 3.890625 0.296875 3.890625 -0.6875 L 3.890625 -4.171875 Z M 2.078125 -3.6875 C 2.796875 -3.6875 3.21875 -3.078125 3.21875 -2.03125 C 3.21875 -1.03125 2.78125 -0.4375 2.09375 -0.4375 C 1.359375 -0.4375 0.921875 -1.046875 0.921875 -2.0625 C 0.921875 -3.0625 1.375 -3.6875 2.078125 -3.6875 Z M 2.078125 -3.6875 "/>
</symbol>
<symbol overflow="visible" id="glyph6-9">
<path style="stroke:none;" d="M 4.09375 -1.859375 C 4.09375 -2.5 4.046875 -2.890625 3.921875 -3.203125 C 3.65625 -3.875 3.015625 -4.296875 2.234375 -4.296875 C 1.0625 -4.296875 0.3125 -3.40625 0.3125 -2.03125 C 0.3125 -0.65625 1.046875 0.1875 2.21875 0.1875 C 3.171875 0.1875 3.828125 -0.359375 4 -1.265625 L 3.328125 -1.265625 C 3.140625 -0.71875 2.765625 -0.4375 2.234375 -0.4375 C 1.8125 -0.4375 1.453125 -0.625 1.234375 -0.96875 C 1.078125 -1.21875 1.015625 -1.453125 1.015625 -1.859375 Z M 1.03125 -2.40625 C 1.078125 -3.171875 1.546875 -3.6875 2.21875 -3.6875 C 2.875 -3.6875 3.375 -3.140625 3.375 -2.453125 C 3.375 -2.4375 3.375 -2.421875 3.375 -2.40625 Z M 1.03125 -2.40625 "/>
</symbol>
<symbol overflow="visible" id="glyph6-10">
<path style="stroke:none;" d="M 0.4375 1.734375 L 1.09375 1.734375 L 1.09375 -0.4375 C 1.453125 -0.015625 1.84375 0.1875 2.375 0.1875 C 3.453125 0.1875 4.171875 -0.6875 4.171875 -2.015625 C 4.171875 -3.421875 3.484375 -4.296875 2.375 -4.296875 C 1.8125 -4.296875 1.359375 -4.046875 1.046875 -3.546875 L 1.046875 -4.171875 L 0.4375 -4.171875 Z M 2.265625 -3.671875 C 3 -3.671875 3.46875 -3.03125 3.46875 -2.03125 C 3.46875 -1.078125 2.984375 -0.4375 2.265625 -0.4375 C 1.5625 -0.4375 1.09375 -1.078125 1.09375 -2.0625 C 1.09375 -3.03125 1.5625 -3.671875 2.265625 -3.671875 Z M 2.265625 -3.671875 "/>
</symbol>
<symbol overflow="visible" id="glyph6-11">
<path style="stroke:none;" d="M 3.484375 -3.015625 C 3.484375 -3.828125 2.9375 -4.296875 1.96875 -4.296875 C 1 -4.296875 0.375 -3.796875 0.375 -3.015625 C 0.375 -2.359375 0.703125 -2.0625 1.703125 -1.8125 L 2.3125 -1.671875 C 2.78125 -1.546875 2.96875 -1.390625 2.96875 -1.078125 C 2.96875 -0.6875 2.578125 -0.4375 1.984375 -0.4375 C 1.640625 -0.4375 1.328125 -0.53125 1.15625 -0.703125 C 1.0625 -0.828125 1.015625 -0.953125 0.96875 -1.25 L 0.265625 -1.25 C 0.296875 -0.28125 0.84375 0.1875 1.9375 0.1875 C 2.984375 0.1875 3.65625 -0.328125 3.65625 -1.140625 C 3.65625 -1.765625 3.3125 -2.109375 2.484375 -2.296875 L 1.84375 -2.453125 C 1.296875 -2.578125 1.0625 -2.75 1.0625 -3.046875 C 1.0625 -3.4375 1.40625 -3.6875 1.953125 -3.6875 C 2.484375 -3.6875 2.765625 -3.453125 2.78125 -3.015625 Z M 3.484375 -3.015625 "/>
</symbol>
<symbol overflow="visible" id="glyph6-12">
<path style="stroke:none;" d="M 1.1875 -4.171875 L 0.53125 -4.171875 L 0.53125 0 L 1.1875 0 Z M 1.1875 -5.8125 L 0.53125 -5.8125 L 0.53125 -4.96875 L 1.1875 -4.96875 Z M 1.1875 -5.8125 "/>
</symbol>
<symbol overflow="visible" id="glyph6-13">
<path style="stroke:none;" d="M 0.6875 -0.828125 L 0.6875 0 L 1.171875 0 L 1.171875 0.140625 C 1.171875 0.6875 1.0625 0.859375 0.6875 0.875 L 0.6875 1.171875 C 1.25 1.171875 1.53125 0.8125 1.53125 0.125 L 1.53125 -0.828125 Z M 0.6875 -0.828125 "/>
</symbol>
<symbol overflow="visible" id="glyph6-14">
<path style="stroke:none;" d="M 4.421875 0 L 5.640625 -4.171875 L 4.890625 -4.171875 L 4.0625 -0.921875 L 3.25 -4.171875 L 2.4375 -4.171875 L 1.640625 -0.921875 L 0.78125 -4.171875 L 0.046875 -4.171875 L 1.265625 0 L 2.015625 0 L 2.8125 -3.28125 L 3.65625 0 Z M 4.421875 0 "/>
</symbol>
<symbol overflow="visible" id="glyph6-15">
<path style="stroke:none;" d="M 1.21875 -5.8125 L 0.546875 -5.8125 L 0.546875 0 L 1.21875 0 Z M 1.21875 -5.8125 "/>
</symbol>
<symbol overflow="visible" id="glyph6-16">
<path style="stroke:none;" d="M 3.75 -2.765625 C 3.71875 -3.171875 3.640625 -3.4375 3.46875 -3.671875 C 3.1875 -4.0625 2.6875 -4.296875 2.109375 -4.296875 C 0.984375 -4.296875 0.25 -3.40625 0.25 -2.015625 C 0.25 -0.671875 0.96875 0.1875 2.09375 0.1875 C 3.09375 0.1875 3.71875 -0.421875 3.796875 -1.4375 L 3.125 -1.4375 C 3.015625 -0.765625 2.671875 -0.4375 2.109375 -0.4375 C 1.375 -0.4375 0.9375 -1.03125 0.9375 -2.015625 C 0.9375 -3.0625 1.375 -3.6875 2.09375 -3.6875 C 2.65625 -3.6875 3 -3.359375 3.078125 -2.765625 Z M 3.75 -2.765625 "/>
</symbol>
<symbol overflow="visible" id="glyph6-17">
<path style="stroke:none;" d="M 1.46875 -2.46875 L 3.296875 -2.46875 C 3.75 -2.46875 4.109375 -2.59375 4.421875 -2.875 C 4.765625 -3.203125 4.921875 -3.5625 4.921875 -4.109375 C 4.921875 -5.203125 4.265625 -5.8125 3.125 -5.8125 L 0.71875 -5.8125 L 0.71875 0 L 1.46875 0 Z M 1.46875 -3.109375 L 1.46875 -5.15625 L 3.015625 -5.15625 C 3.71875 -5.15625 4.140625 -4.765625 4.140625 -4.140625 C 4.140625 -3.5 3.71875 -3.109375 3.015625 -3.109375 Z M 1.46875 -3.109375 "/>
</symbol>
<symbol overflow="visible" id="glyph6-18">
<path style="stroke:none;" d="M 0.703125 0 L 2.953125 0 C 4.421875 0 5.3125 -1.09375 5.3125 -2.90625 C 5.3125 -4.703125 4.421875 -5.8125 2.953125 -5.8125 L 0.703125 -5.8125 Z M 1.453125 -0.65625 L 1.453125 -5.15625 L 2.828125 -5.15625 C 3.96875 -5.15625 4.578125 -4.375 4.578125 -2.90625 C 4.578125 -1.4375 3.96875 -0.65625 2.828125 -0.65625 Z M 1.453125 -0.65625 "/>
</symbol>
<symbol overflow="visible" id="glyph6-19">
<path style="stroke:none;" d="M 0.5625 -5.8125 L 0.5625 0 L 1.21875 0 L 1.21875 -2.296875 C 1.21875 -3.15625 1.671875 -3.71875 2.34375 -3.71875 C 2.5625 -3.71875 2.78125 -3.640625 2.9375 -3.515625 C 3.125 -3.390625 3.21875 -3.1875 3.21875 -2.890625 L 3.21875 0 L 3.875 0 L 3.875 -3.15625 C 3.875 -3.859375 3.375 -4.296875 2.5625 -4.296875 C 1.96875 -4.296875 1.609375 -4.109375 1.21875 -3.609375 L 1.21875 -5.8125 Z M 0.5625 -5.8125 "/>
</symbol>
<symbol overflow="visible" id="glyph6-20">
<path style="stroke:none;" d="M 3.84375 0 L 3.84375 -4.171875 L 3.171875 -4.171875 L 3.171875 -1.8125 C 3.171875 -0.953125 2.734375 -0.390625 2.046875 -0.390625 C 1.515625 -0.390625 1.171875 -0.71875 1.171875 -1.21875 L 1.171875 -4.171875 L 0.515625 -4.171875 L 0.515625 -0.953125 C 0.515625 -0.265625 1.03125 0.1875 1.84375 0.1875 C 2.46875 0.1875 2.859375 -0.03125 3.25 -0.578125 L 3.25 0 Z M 3.84375 0 "/>
</symbol>
<symbol overflow="visible" id="glyph6-21">
<path style="stroke:none;" d="M 2.265625 0 L 3.875 -4.171875 L 3.125 -4.171875 L 1.9375 -0.78125 L 0.828125 -4.171875 L 0.078125 -4.171875 L 1.546875 0 Z M 2.265625 0 "/>
</symbol>
<symbol overflow="visible" id="glyph7-0">
<path style="stroke:none;" d=""/>
</symbol>
<symbol overflow="visible" id="glyph7-1">
<path style="stroke:none;" d="M 3.578125 -2.640625 C 3.609375 -2.78125 3.625 -2.84375 3.625 -2.9375 C 3.625 -3.421875 3.15625 -3.75 2.484375 -3.75 C 1.984375 -3.75 1.5625 -3.609375 1.28125 -3.34375 C 1.03125 -3.09375 0.859375 -2.734375 0.859375 -2.40625 C 0.859375 -1.984375 1.09375 -1.78125 1.8125 -1.59375 L 2.328125 -1.453125 C 2.5625 -1.390625 2.671875 -1.359375 2.734375 -1.28125 C 2.78125 -1.21875 2.828125 -1.109375 2.828125 -1.046875 C 2.828125 -0.921875 2.703125 -0.703125 2.59375 -0.609375 C 2.421875 -0.46875 2.125 -0.375 1.828125 -0.375 C 1.34375 -0.375 1.078125 -0.5625 1.078125 -0.90625 C 1.078125 -0.953125 1.078125 -1.015625 1.09375 -1.09375 L 0.46875 -1.09375 C 0.4375 -0.921875 0.421875 -0.84375 0.421875 -0.734375 C 0.421875 -0.171875 0.90625 0.15625 1.71875 0.15625 C 2.765625 0.15625 3.4375 -0.375 3.4375 -1.203125 C 3.4375 -1.625 3.203125 -1.859375 2.59375 -2 L 2.0625 -2.140625 C 1.671875 -2.234375 1.46875 -2.375 1.46875 -2.5625 C 1.46875 -2.703125 1.546875 -2.875 1.671875 -2.984375 C 1.84375 -3.15625 2.0625 -3.21875 2.359375 -3.21875 C 2.78125 -3.21875 3 -3.0625 3 -2.78125 C 3 -2.734375 3 -2.6875 3 -2.640625 Z M 3.578125 -2.640625 "/>
</symbol>
<symbol overflow="visible" id="glyph7-2">
<path style="stroke:none;" d="M 2.546875 -3.65625 L 1.9375 -3.65625 L 2.140625 -4.65625 L 1.5625 -4.65625 L 1.34375 -3.65625 L 0.84375 -3.65625 L 0.75 -3.1875 L 1.25 -3.1875 L 0.703125 -0.609375 C 0.6875 -0.53125 0.671875 -0.453125 0.671875 -0.390625 C 0.671875 -0.046875 0.90625 0.15625 1.296875 0.15625 C 1.4375 0.15625 1.65625 0.140625 1.75 0.109375 L 1.859375 -0.390625 C 1.640625 -0.34375 1.609375 -0.34375 1.53125 -0.34375 C 1.375 -0.34375 1.28125 -0.421875 1.28125 -0.53125 C 1.28125 -0.546875 1.28125 -0.578125 1.296875 -0.625 L 1.828125 -3.1875 L 2.453125 -3.1875 Z M 2.546875 -3.65625 "/>
</symbol>
<symbol overflow="visible" id="glyph7-3">
<path style="stroke:none;" d="M 3.4375 -4.515625 L 5.09375 -4.515625 L 5.21875 -5.078125 L 1.21875 -5.078125 L 1.09375 -4.515625 L 2.78125 -4.515625 L 1.8125 0 L 2.46875 0 Z M 3.4375 -4.515625 "/>
</symbol>
<symbol overflow="visible" id="glyph8-0">
<path style="stroke:none;" d=""/>
</symbol>
<symbol overflow="visible" id="glyph8-1">
<path style="stroke:none;" d="M 5.1875 -1.578125 C 5.296875 -1.578125 5.46875 -1.578125 5.46875 -1.734375 C 5.46875 -1.921875 5.296875 -1.921875 5.1875 -1.921875 L 1.03125 -1.921875 C 0.921875 -1.921875 0.75 -1.921875 0.75 -1.75 C 0.75 -1.578125 0.90625 -1.578125 1.03125 -1.578125 Z M 5.1875 -1.578125 "/>
</symbol>
<symbol overflow="visible" id="glyph9-0">
<path style="stroke:none;" d=""/>
</symbol>
<symbol overflow="visible" id="glyph9-1">
<path style="stroke:none;" d="M 1.375 -3.53125 C 1.046875 -3.53125 0.75 -3.390625 0.5625 -3.140625 C 0.328125 -2.84375 0.21875 -2.359375 0.21875 -1.703125 C 0.21875 -0.515625 0.609375 0.109375 1.375 0.109375 C 2.125 0.109375 2.53125 -0.515625 2.53125 -1.6875 C 2.53125 -2.375 2.421875 -2.828125 2.1875 -3.140625 C 2 -3.390625 1.703125 -3.53125 1.375 -3.53125 Z M 1.375 -3.140625 C 1.84375 -3.140625 2.078125 -2.671875 2.078125 -1.71875 C 2.078125 -0.71875 1.84375 -0.25 1.359375 -0.25 C 0.890625 -0.25 0.65625 -0.734375 0.65625 -1.703125 C 0.65625 -2.671875 0.890625 -3.140625 1.375 -3.140625 Z M 1.375 -3.140625 "/>
</symbol>
<symbol overflow="visible" id="glyph9-2">
<path style="stroke:none;" d="M 1.296875 -2.515625 L 1.296875 0 L 1.734375 0 L 1.734375 -3.53125 L 1.4375 -3.53125 C 1.28125 -2.984375 1.1875 -2.921875 0.515625 -2.828125 L 0.515625 -2.515625 Z M 1.296875 -2.515625 "/>
</symbol>
</g>
<clipPath id="clip1">
  <path d="M 253 154 L 409.859375 154 L 409.859375 257 L 253 257 Z M 253 154 "/>
</clipPath>
</defs>
<g id="surface1">
<path style="fill-rule:nonzero;fill:rgb(100%,100%,100%);fill-opacity:1;stroke-width:1.19553;stroke-linecap:butt;stroke-linejoin:miter;stroke:rgb(0%,0%,0%);stroke-opacity:1;stroke-miterlimit:10;" d="M 53.860062 34.017937 L -53.858688 34.017937 C -58.261031 34.017937 -61.827438 30.447625 -61.827438 26.045281 L -61.827438 -26.044563 C -61.827438 -30.446906 -58.261031 -34.017219 -53.858688 -34.017219 L 53.860062 -34.017219 C 58.262406 -34.017219 61.828812 -30.446906 61.828812 -26.044563 L 61.828812 26.045281 C 61.828812 30.447625 58.262406 34.017937 53.860062 34.017937 Z M 53.860062 34.017937 " transform="matrix(1,0,0,-1,204.929,49.557)"/>
<g style="fill:rgb(0%,0%,0%);fill-opacity:1;">
  <use xlink:href="#glyph0-1" x="160.541" y="37.125"/>
  <use xlink:href="#glyph0-2" x="169.172654" y="37.125"/>
</g>
<g style="fill:rgb(0%,0%,0%);fill-opacity:1;">
  <use xlink:href="#glyph0-3" x="179.800827" y="37.125"/>
  <use xlink:href="#glyph0-4" x="187.774946" y="37.125"/>
</g>
<g style="fill:rgb(0%,0%,0%);fill-opacity:1;">
  <use xlink:href="#glyph0-2" x="192.186414" y="37.125"/>
  <use xlink:href="#glyph0-5" x="199.491042" y="37.125"/>
  <use xlink:href="#glyph0-4" x="206.795669" y="37.125"/>
  <use xlink:href="#glyph0-6" x="211.446242" y="37.125"/>
  <use xlink:href="#glyph0-7" x="218.093333" y="37.125"/>
  <use xlink:href="#glyph0-7" x="224.740424" y="37.125"/>
  <use xlink:href="#glyph0-8" x="231.387515" y="37.125"/>
  <use xlink:href="#glyph0-2" x="234.711061" y="37.125"/>
  <use xlink:href="#glyph0-9" x="242.015688" y="37.125"/>
</g>
<g style="fill:rgb(0%,0%,0%);fill-opacity:1;">
  <use xlink:href="#glyph1-1" x="188.868" y="53.332"/>
  <use xlink:href="#glyph1-2" x="195.513054" y="53.332"/>
  <use xlink:href="#glyph1-3" x="198.282657" y="53.332"/>
  <use xlink:href="#glyph1-2" x="203.821863" y="53.332"/>
  <use xlink:href="#glyph1-4" x="206.591465" y="53.332"/>
</g>
<g style="fill:rgb(0%,0%,0%);fill-opacity:1;">
  <use xlink:href="#glyph1-5" x="215.448217" y="53.332"/>
</g>
<g style="fill:rgb(0%,0%,0%);fill-opacity:1;">
  <use xlink:href="#glyph2-1" x="168.295" y="69.539"/>
  <use xlink:href="#glyph2-2" x="173.611057" y="69.539"/>
  <use xlink:href="#glyph2-3" x="175.380419" y="69.539"/>
  <use xlink:href="#glyph2-4" x="177.149781" y="69.539"/>
</g>
<g style="fill:rgb(0%,0%,0%);fill-opacity:1;">
  <use xlink:href="#glyph2-5" x="180.935579" y="69.539"/>
</g>
<g style="fill:rgb(0%,0%,0%);fill-opacity:1;">
  <use xlink:href="#glyph2-6" x="185.247403" y="69.539"/>
</g>
<g style="fill:rgb(0%,0%,0%);fill-opacity:1;">
  <use xlink:href="#glyph2-7" x="190.786622" y="69.539"/>
  <use xlink:href="#glyph2-8" x="195.217998" y="69.539"/>
</g>
<g style="fill:rgb(0%,0%,0%);fill-opacity:1;">
  <use xlink:href="#glyph2-9" x="202.964935" y="69.539"/>
  <use xlink:href="#glyph2-10" x="208.280992" y="69.539"/>
  <use xlink:href="#glyph2-11" x="213.150723" y="69.539"/>
</g>
<g style="fill:rgb(0%,0%,0%);fill-opacity:1;">
  <use xlink:href="#glyph2-5" x="221.790311" y="69.539"/>
</g>
<g style="fill:rgb(0%,0%,0%);fill-opacity:1;">
  <use xlink:href="#glyph2-4" x="225.982584" y="69.539"/>
</g>
<g style="fill:rgb(0%,0%,0%);fill-opacity:1;">
  <use xlink:href="#glyph2-5" x="229.768381" y="69.539"/>
  <use xlink:href="#glyph2-7" x="234.199757" y="69.539"/>
  <use xlink:href="#glyph2-12" x="238.631132" y="69.539"/>
</g>
<path style="fill-rule:nonzero;fill:rgb(100%,100%,100%);fill-opacity:1;stroke-width:1.19553;stroke-linecap:butt;stroke-linejoin:miter;stroke:rgb(0%,0%,0%);stroke-opacity:1;stroke-miterlimit:10;" d="M -73.702438 -121.892219 L -181.421188 -121.892219 C -185.819625 -121.892219 -189.389938 -125.458625 -189.389938 -129.860969 L -189.389938 -181.954719 C -189.389938 -186.357063 -185.819625 -189.923469 -181.421188 -189.923469 L -73.702438 -189.923469 C -69.300094 -189.923469 -65.729781 -186.357063 -65.729781 -181.954719 L -65.729781 -129.860969 C -65.729781 -125.458625 -69.300094 -121.892219 -73.702438 -121.892219 Z M -73.702438 -121.892219 " transform="matrix(1,0,0,-1,204.929,49.557)"/>
<g style="fill:rgb(0%,0%,0%);fill-opacity:1;">
  <use xlink:href="#glyph0-3" x="44.601" y="193.47"/>
  <use xlink:href="#glyph0-4" x="52.575118" y="193.47"/>
</g>
<g style="fill:rgb(0%,0%,0%);fill-opacity:1;">
  <use xlink:href="#glyph0-2" x="56.986587" y="193.47"/>
  <use xlink:href="#glyph0-5" x="64.291214" y="193.47"/>
  <use xlink:href="#glyph0-4" x="71.595842" y="193.47"/>
  <use xlink:href="#glyph0-6" x="76.246414" y="193.47"/>
  <use xlink:href="#glyph0-7" x="82.893506" y="193.47"/>
  <use xlink:href="#glyph0-7" x="89.540597" y="193.47"/>
  <use xlink:href="#glyph0-6" x="96.187688" y="193.47"/>
  <use xlink:href="#glyph0-10" x="102.834779" y="193.47"/>
</g>
<g style="fill:rgb(0%,0%,0%);fill-opacity:1;">
  <use xlink:href="#glyph1-1" x="61.309" y="209.677"/>
  <use xlink:href="#glyph1-2" x="67.954054" y="209.677"/>
  <use xlink:href="#glyph1-3" x="70.723657" y="209.677"/>
  <use xlink:href="#glyph1-2" x="76.262863" y="209.677"/>
  <use xlink:href="#glyph1-4" x="79.032465" y="209.677"/>
</g>
<g style="fill:rgb(0%,0%,0%);fill-opacity:1;">
  <use xlink:href="#glyph1-6" x="87.889217" y="209.677"/>
</g>
<g style="fill:rgb(0%,0%,0%);fill-opacity:1;">
  <use xlink:href="#glyph2-9" x="40.886" y="225.884"/>
  <use xlink:href="#glyph2-10" x="46.202057" y="225.884"/>
  <use xlink:href="#glyph2-11" x="51.071788" y="225.884"/>
</g>
<g style="fill:rgb(0%,0%,0%);fill-opacity:1;">
  <use xlink:href="#glyph2-5" x="59.711376" y="225.884"/>
</g>
<g style="fill:rgb(0%,0%,0%);fill-opacity:1;">
  <use xlink:href="#glyph2-4" x="63.903649" y="225.884"/>
</g>
<g style="fill:rgb(0%,0%,0%);fill-opacity:1;">
  <use xlink:href="#glyph2-5" x="67.689446" y="225.884"/>
  <use xlink:href="#glyph2-7" x="72.120822" y="225.884"/>
  <use xlink:href="#glyph2-12" x="76.552197" y="225.884"/>
</g>
<g style="fill:rgb(0%,0%,0%);fill-opacity:1;">
  <use xlink:href="#glyph2-8" x="82.083447" y="225.884"/>
  <use xlink:href="#glyph2-13" x="86.514822" y="225.884"/>
  <use xlink:href="#glyph2-13" x="90.499872" y="225.884"/>
  <use xlink:href="#glyph2-14" x="94.484922" y="225.884"/>
  <use xlink:href="#glyph2-15" x="98.916298" y="225.884"/>
  <use xlink:href="#glyph2-15" x="101.570341" y="225.884"/>
  <use xlink:href="#glyph2-5" x="104.224385" y="225.884"/>
  <use xlink:href="#glyph2-16" x="108.65576" y="225.884"/>
</g>
<path style=" stroke:none;fill-rule:nonzero;fill:rgb(14.99939%,14.99939%,14.99939%);fill-opacity:1;" d="M 386.347656 171.449219 L 278.628906 171.449219 C 274.230469 171.449219 270.660156 175.015625 270.660156 179.417969 L 270.660156 231.511719 C 270.660156 235.914062 274.230469 239.480469 278.628906 239.480469 L 386.347656 239.480469 C 390.75 239.480469 394.320312 235.914062 394.320312 231.511719 L 394.320312 179.417969 C 394.320312 175.015625 390.75 171.449219 386.347656 171.449219 Z M 386.347656 171.449219 "/>
<g clip-path="url(#clip1)" clip-rule="nonzero">
<path style="fill:none;stroke-width:1.19553;stroke-linecap:butt;stroke-linejoin:miter;stroke:rgb(0%,0%,0%);stroke-opacity:1;stroke-miterlimit:10;" d="M 181.418656 -121.892219 L 73.699906 -121.892219 C 69.301469 -121.892219 65.731156 -125.458625 65.731156 -129.860969 L 65.731156 -181.954719 C 65.731156 -186.357063 69.301469 -189.923469 73.699906 -189.923469 L 181.418656 -189.923469 C 185.821 -189.923469 189.391312 -186.357063 189.391312 -181.954719 L 189.391312 -129.860969 C 189.391312 -125.458625 185.821 -121.892219 181.418656 -121.892219 Z M 181.418656 -121.892219 " transform="matrix(1,0,0,-1,204.929,49.557)"/>
</g>
<g style="fill:rgb(100%,100%,100%);fill-opacity:1;">
  <use xlink:href="#glyph0-11" x="317.873" y="192.649"/>
  <use xlink:href="#glyph0-6" x="326.504654" y="192.649"/>
  <use xlink:href="#glyph0-12" x="333.151746" y="192.649"/>
  <use xlink:href="#glyph0-10" x="339.798837" y="192.649"/>
</g>
<g style="fill:rgb(100%,100%,100%);fill-opacity:1;">
  <use xlink:href="#glyph1-1" x="316.427" y="208.856"/>
  <use xlink:href="#glyph1-2" x="323.072054" y="208.856"/>
  <use xlink:href="#glyph1-3" x="325.841657" y="208.856"/>
  <use xlink:href="#glyph1-2" x="331.380863" y="208.856"/>
  <use xlink:href="#glyph1-4" x="334.150465" y="208.856"/>
</g>
<g style="fill:rgb(100%,100%,100%);fill-opacity:1;">
  <use xlink:href="#glyph1-7" x="343.007217" y="208.856"/>
</g>
<g style="fill:rgb(100%,100%,100%);fill-opacity:1;">
  <use xlink:href="#glyph2-1" x="304.162" y="225.063"/>
  <use xlink:href="#glyph2-17" x="309.478057" y="225.063"/>
  <use xlink:href="#glyph2-18" x="313.909432" y="225.063"/>
  <use xlink:href="#glyph2-8" x="317.894482" y="225.063"/>
  <use xlink:href="#glyph2-15" x="322.325858" y="225.063"/>
  <use xlink:href="#glyph2-17" x="324.979901" y="225.063"/>
  <use xlink:href="#glyph2-3" x="329.411277" y="225.063"/>
  <use xlink:href="#glyph2-7" x="331.180639" y="225.063"/>
  <use xlink:href="#glyph2-19" x="335.612015" y="225.063"/>
</g>
<g style="fill:rgb(100%,100%,100%);fill-opacity:1;">
  <use xlink:href="#glyph2-18" x="343.366922" y="225.063"/>
  <use xlink:href="#glyph2-12" x="347.351972" y="225.063"/>
  <use xlink:href="#glyph2-20" x="349.56766" y="225.063"/>
  <use xlink:href="#glyph2-12" x="353.999035" y="225.063"/>
  <use xlink:href="#glyph2-5" x="356.214723" y="225.063"/>
</g>
<path style="fill:none;stroke-width:1.19553;stroke-linecap:butt;stroke-linejoin:miter;stroke:rgb(0%,0%,0%);stroke-opacity:1;stroke-miterlimit:10;" d="M -62.425094 -34.614875 C -83.6165 -71.314094 -127.561813 -78.915656 -127.561813 -120.09925 " transform="matrix(1,0,0,-1,204.929,49.557)"/>
<path style="fill:none;stroke-width:1.19553;stroke-linecap:round;stroke-linejoin:round;stroke:rgb(0%,0%,0%);stroke-opacity:1;stroke-miterlimit:10;" d="M -3.030174 3.830839 C -2.475486 1.533964 -1.241111 0.448026 0.00107625 -0.0011925 C -1.241111 -0.446505 -2.475486 -1.532442 -3.030174 -3.829317 " transform="matrix(0,1,1,0,77.36838,170.25283)"/>
<path style=" stroke:none;fill-rule:nonzero;fill:rgb(100%,100%,100%);fill-opacity:1;" d="M 69.054688 133.046875 L 99.398438 133.046875 L 99.398438 117.714844 L 69.054688 117.714844 Z M 69.054688 133.046875 "/>
<g style="fill:rgb(0%,0%,0%);fill-opacity:1;">
  <use xlink:href="#glyph3-1" x="72.046" y="127.981"/>
</g>
<g style="fill:rgb(0%,0%,0%);fill-opacity:1;">
  <use xlink:href="#glyph4-1" x="77.858" y="129.475"/>
  <use xlink:href="#glyph4-2" x="81.735433" y="129.475"/>
</g>
<g style="fill:rgb(0%,0%,0%);fill-opacity:1;">
  <use xlink:href="#glyph1-8" x="86.111" y="127.981"/>
</g>
<g style="fill:rgb(0%,0%,0%);fill-opacity:1;">
  <use xlink:href="#glyph5-1" x="89.428546" y="127.981"/>
</g>
<g style="fill:rgb(0%,0%,0%);fill-opacity:1;">
  <use xlink:href="#glyph1-9" x="93.094783" y="127.981"/>
</g>
<path style="fill:none;stroke-width:1.19553;stroke-linecap:butt;stroke-linejoin:miter;stroke:rgb(0%,0%,0%);stroke-opacity:1;stroke-miterlimit:10;" d="M 62.426469 -34.614875 C 83.613969 -71.314094 127.559281 -78.915656 127.559281 -120.09925 " transform="matrix(1,0,0,-1,204.929,49.557)"/>
<path style="fill:none;stroke-width:1.19553;stroke-linecap:round;stroke-linejoin:round;stroke:rgb(0%,0%,0%);stroke-opacity:1;stroke-miterlimit:10;" d="M -3.030174 3.830692 C -2.475486 1.533817 -1.241111 0.44788 0.00107625 -0.00133875 C -1.241111 -0.446651 -2.475486 -1.532589 -3.030174 -3.829464 " transform="matrix(0,1,1,0,332.48962,170.25283)"/>
<path style=" stroke:none;fill-rule:nonzero;fill:rgb(100%,100%,100%);fill-opacity:1;" d="M 310.457031 133.046875 L 340.800781 133.046875 L 340.800781 117.714844 L 310.457031 117.714844 Z M 310.457031 133.046875 "/>
<g style="fill:rgb(0%,0%,0%);fill-opacity:1;">
  <use xlink:href="#glyph3-1" x="313.446" y="127.981"/>
</g>
<g style="fill:rgb(0%,0%,0%);fill-opacity:1;">
  <use xlink:href="#glyph4-1" x="319.258" y="129.475"/>
  <use xlink:href="#glyph4-3" x="323.135433" y="129.475"/>
</g>
<g style="fill:rgb(0%,0%,0%);fill-opacity:1;">
  <use xlink:href="#glyph1-8" x="327.511" y="127.981"/>
</g>
<g style="fill:rgb(0%,0%,0%);fill-opacity:1;">
  <use xlink:href="#glyph5-1" x="330.828546" y="127.981"/>
</g>
<g style="fill:rgb(0%,0%,0%);fill-opacity:1;">
  <use xlink:href="#glyph1-9" x="334.494783" y="127.981"/>
</g>
<path style="fill:none;stroke-width:1.19553;stroke-linecap:butt;stroke-linejoin:miter;stroke:rgb(0%,0%,0%);stroke-opacity:1;stroke-miterlimit:10;" d="M -65.132125 -155.907844 L 63.938187 -155.907844 " transform="matrix(1,0,0,-1,204.929,49.557)"/>
<path style="fill:none;stroke-width:1.19553;stroke-linecap:round;stroke-linejoin:round;stroke:rgb(0%,0%,0%);stroke-opacity:1;stroke-miterlimit:10;" d="M -3.0274 3.831627 C -2.476619 1.530846 -1.242244 0.448815 -0.00005625 -0.00040375 C -1.242244 -0.445716 -2.476619 -1.531654 -3.0274 -3.832435 " transform="matrix(1,0,0,-1,269.4649,205.46444)"/>
<path style=" stroke:none;fill-rule:nonzero;fill:rgb(100%,100%,100%);fill-opacity:1;" d="M 188.957031 223.386719 L 220.902344 223.386719 L 220.902344 208.054688 L 188.957031 208.054688 Z M 188.957031 223.386719 "/>
<g style="fill:rgb(0%,0%,0%);fill-opacity:1;">
  <use xlink:href="#glyph3-1" x="191.944" y="218.319"/>
</g>
<g style="fill:rgb(0%,0%,0%);fill-opacity:1;">
  <use xlink:href="#glyph4-2" x="197.756" y="219.814"/>
  <use xlink:href="#glyph4-3" x="201.633433" y="219.814"/>
</g>
<g style="fill:rgb(0%,0%,0%);fill-opacity:1;">
  <use xlink:href="#glyph1-8" x="206.009" y="218.319"/>
</g>
<g style="fill:rgb(0%,0%,0%);fill-opacity:1;">
  <use xlink:href="#glyph5-2" x="209.326546" y="218.319"/>
</g>
<g style="fill:rgb(0%,0%,0%);fill-opacity:1;">
  <use xlink:href="#glyph1-9" x="214.596761" y="218.319"/>
</g>
<g style="fill:rgb(29.998779%,29.998779%,29.998779%);fill-opacity:1;">
  <use xlink:href="#glyph6-1" x="44.055" y="109.48"/>
  <use xlink:href="#glyph6-2" x="49.809412" y="109.48"/>
  <use xlink:href="#glyph6-3" x="54.240788" y="109.48"/>
  <use xlink:href="#glyph6-4" x="58.672163" y="109.48"/>
  <use xlink:href="#glyph6-5" x="61.326207" y="109.48"/>
  <use xlink:href="#glyph6-6" x="63.541895" y="109.48"/>
  <use xlink:href="#glyph6-7" x="67.97327" y="109.48"/>
  <use xlink:href="#glyph6-8" x="70.627313" y="109.48"/>
  <use xlink:href="#glyph6-9" x="75.058689" y="109.48"/>
  <use xlink:href="#glyph6-5" x="79.490065" y="109.48"/>
</g>
<g style="fill:rgb(29.998779%,29.998779%,29.998779%);fill-opacity:1;">
  <use xlink:href="#glyph6-10" x="83.92144" y="109.48"/>
  <use xlink:href="#glyph6-7" x="88.352816" y="109.48"/>
  <use xlink:href="#glyph6-2" x="91.006859" y="109.48"/>
  <use xlink:href="#glyph6-8" x="95.438235" y="109.48"/>
</g>
<g style="fill:rgb(29.998779%,29.998779%,29.998779%);fill-opacity:1;">
  <use xlink:href="#glyph6-7" x="99.789909" y="109.48"/>
  <use xlink:href="#glyph6-9" x="102.443953" y="109.48"/>
  <use xlink:href="#glyph6-11" x="106.875328" y="109.48"/>
  <use xlink:href="#glyph6-11" x="110.860378" y="109.48"/>
  <use xlink:href="#glyph6-12" x="114.845428" y="109.48"/>
  <use xlink:href="#glyph6-2" x="116.61479" y="109.48"/>
  <use xlink:href="#glyph6-3" x="121.046166" y="109.48"/>
  <use xlink:href="#glyph6-13" x="125.477542" y="109.48"/>
</g>
<g style="fill:rgb(29.998779%,29.998779%,29.998779%);fill-opacity:1;">
  <use xlink:href="#glyph6-3" x="44.382" y="118.945"/>
  <use xlink:href="#glyph6-9" x="48.813376" y="118.945"/>
</g>
<g style="fill:rgb(29.998779%,29.998779%,29.998779%);fill-opacity:1;">
  <use xlink:href="#glyph6-14" x="53.085349" y="118.945"/>
</g>
<g style="fill:rgb(29.998779%,29.998779%,29.998779%);fill-opacity:1;">
  <use xlink:href="#glyph6-15" x="61.055449" y="118.945"/>
  <use xlink:href="#glyph6-9" x="62.824811" y="118.945"/>
  <use xlink:href="#glyph6-11" x="67.256187" y="118.945"/>
  <use xlink:href="#glyph6-12" x="71.241237" y="118.945"/>
  <use xlink:href="#glyph6-2" x="73.010599" y="118.945"/>
  <use xlink:href="#glyph6-3" x="77.441975" y="118.945"/>
  <use xlink:href="#glyph6-11" x="81.87335" y="118.945"/>
</g>
<g style="fill:rgb(29.998779%,29.998779%,29.998779%);fill-opacity:1;">
  <use xlink:href="#glyph6-13" x="85.738849" y="118.945"/>
</g>
<g style="fill:rgb(29.998779%,29.998779%,29.998779%);fill-opacity:1;">
  <use xlink:href="#glyph6-16" x="90.170224" y="118.945"/>
  <use xlink:href="#glyph6-15" x="94.155274" y="118.945"/>
  <use xlink:href="#glyph6-12" x="95.924637" y="118.945"/>
  <use xlink:href="#glyph6-3" x="97.693999" y="118.945"/>
  <use xlink:href="#glyph6-12" x="102.125374" y="118.945"/>
  <use xlink:href="#glyph6-16" x="103.894737" y="118.945"/>
  <use xlink:href="#glyph6-6" x="107.879787" y="118.945"/>
  <use xlink:href="#glyph6-15" x="112.311162" y="118.945"/>
</g>
<g style="fill:rgb(29.998779%,29.998779%,29.998779%);fill-opacity:1;">
  <use xlink:href="#glyph6-17" x="116.296212" y="118.945"/>
  <use xlink:href="#glyph6-18" x="121.612269" y="118.945"/>
</g>
<g style="fill:rgb(29.998779%,29.998779%,29.998779%);fill-opacity:1;">
  <use xlink:href="#glyph6-18" x="299.62" y="109.179"/>
  <use xlink:href="#glyph6-9" x="305.374412" y="109.179"/>
  <use xlink:href="#glyph6-6" x="309.805788" y="109.179"/>
  <use xlink:href="#glyph6-5" x="314.237163" y="109.179"/>
  <use xlink:href="#glyph6-19" x="316.452851" y="109.179"/>
</g>
<g style="fill:rgb(29.998779%,29.998779%,29.998779%);fill-opacity:1;">
  <use xlink:href="#glyph6-14" x="323.099915" y="109.179"/>
  <use xlink:href="#glyph6-12" x="328.854327" y="109.179"/>
  <use xlink:href="#glyph6-5" x="330.623689" y="109.179"/>
  <use xlink:href="#glyph6-19" x="332.839377" y="109.179"/>
  <use xlink:href="#glyph6-2" x="337.270752" y="109.179"/>
  <use xlink:href="#glyph6-20" x="341.702128" y="109.179"/>
  <use xlink:href="#glyph6-5" x="346.133504" y="109.179"/>
</g>
<g style="fill:rgb(29.998779%,29.998779%,29.998779%);fill-opacity:1;">
  <use xlink:href="#glyph6-10" x="294.069" y="118.644"/>
  <use xlink:href="#glyph6-7" x="298.500376" y="118.644"/>
</g>
<g style="fill:rgb(29.998779%,29.998779%,29.998779%);fill-opacity:1;">
  <use xlink:href="#glyph6-12" x="301.27397" y="118.644"/>
  <use xlink:href="#glyph6-2" x="303.043333" y="118.644"/>
  <use xlink:href="#glyph6-7" x="307.474708" y="118.644"/>
</g>
<g style="fill:rgb(29.998779%,29.998779%,29.998779%);fill-opacity:1;">
  <use xlink:href="#glyph6-10" x="312.344439" y="118.644"/>
  <use xlink:href="#glyph6-7" x="316.775815" y="118.644"/>
  <use xlink:href="#glyph6-2" x="319.429858" y="118.644"/>
  <use xlink:href="#glyph6-8" x="323.861234" y="118.644"/>
</g>
<g style="fill:rgb(29.998779%,29.998779%,29.998779%);fill-opacity:1;">
  <use xlink:href="#glyph6-7" x="328.212908" y="118.644"/>
  <use xlink:href="#glyph6-9" x="330.866952" y="118.644"/>
  <use xlink:href="#glyph6-11" x="335.298327" y="118.644"/>
  <use xlink:href="#glyph6-11" x="339.283377" y="118.644"/>
  <use xlink:href="#glyph6-12" x="343.268427" y="118.644"/>
  <use xlink:href="#glyph6-2" x="345.03779" y="118.644"/>
  <use xlink:href="#glyph6-3" x="349.469165" y="118.644"/>
</g>
<g style="fill:rgb(29.998779%,29.998779%,29.998779%);fill-opacity:1;">
  <use xlink:href="#glyph6-17" x="175.049" y="251.733"/>
</g>
<g style="fill:rgb(29.998779%,29.998779%,29.998779%);fill-opacity:1;">
  <use xlink:href="#glyph6-2" x="179.966552" y="251.733"/>
  <use xlink:href="#glyph6-11" x="184.397927" y="251.733"/>
  <use xlink:href="#glyph6-5" x="188.382977" y="251.733"/>
  <use xlink:href="#glyph6-4" x="190.598665" y="251.733"/>
  <use xlink:href="#glyph6-10" x="193.252708" y="251.733"/>
  <use xlink:href="#glyph6-7" x="197.684084" y="251.733"/>
  <use xlink:href="#glyph6-2" x="200.338127" y="251.733"/>
  <use xlink:href="#glyph6-8" x="204.769503" y="251.733"/>
</g>
<g style="fill:rgb(29.998779%,29.998779%,29.998779%);fill-opacity:1;">
  <use xlink:href="#glyph6-7" x="209.121178" y="251.733"/>
  <use xlink:href="#glyph6-9" x="211.775221" y="251.733"/>
  <use xlink:href="#glyph6-11" x="216.206596" y="251.733"/>
  <use xlink:href="#glyph6-11" x="220.191646" y="251.733"/>
  <use xlink:href="#glyph6-12" x="224.176696" y="251.733"/>
  <use xlink:href="#glyph6-2" x="225.946059" y="251.733"/>
  <use xlink:href="#glyph6-3" x="230.377434" y="251.733"/>
</g>
<g style="fill:rgb(29.998779%,29.998779%,29.998779%);fill-opacity:1;">
  <use xlink:href="#glyph6-11" x="191.404" y="261.197"/>
  <use xlink:href="#glyph6-20" x="195.38905" y="261.197"/>
  <use xlink:href="#glyph6-7" x="199.820426" y="261.197"/>
</g>
<g style="fill:rgb(29.998779%,29.998779%,29.998779%);fill-opacity:1;">
  <use xlink:href="#glyph6-21" x="202.713572" y="261.197"/>
  <use xlink:href="#glyph6-12" x="206.698622" y="261.197"/>
  <use xlink:href="#glyph6-21" x="208.467984" y="261.197"/>
</g>
<g style="fill:rgb(29.998779%,29.998779%,29.998779%);fill-opacity:1;">
  <use xlink:href="#glyph6-6" x="212.253782" y="261.197"/>
  <use xlink:href="#glyph6-15" x="216.685157" y="261.197"/>
</g>
<g style="fill:rgb(50%,50%,50%);fill-opacity:1;">
  <use xlink:href="#glyph7-1" x="164.083" y="232.794"/>
</g>
<g style="fill:rgb(50%,50%,50%);fill-opacity:1;">
  <use xlink:href="#glyph4-4" x="170.038625" y="232.794"/>
</g>
<g style="fill:rgb(50%,50%,50%);fill-opacity:1;">
  <use xlink:href="#glyph7-2" x="176.377809" y="232.794"/>
</g>
<g style="fill:rgb(50%,50%,50%);fill-opacity:1;">
  <use xlink:href="#glyph8-1" x="180.757356" y="232.794"/>
</g>
<g style="fill:rgb(50%,50%,50%);fill-opacity:1;">
  <use xlink:href="#glyph7-3" x="188.804424" y="232.794"/>
</g>
<g style="fill:rgb(50%,50%,50%);fill-opacity:1;">
  <use xlink:href="#glyph9-1" x="193.063" y="233.901"/>
  <use xlink:href="#glyph9-2" x="195.832603" y="233.901"/>
</g>
<g style="fill:rgb(50%,50%,50%);fill-opacity:1;">
  <use xlink:href="#glyph4-5" x="201.038" y="232.794"/>
  <use xlink:href="#glyph4-6" x="203.360275" y="232.794"/>
  <use xlink:href="#glyph4-7" x="206.847175" y="232.794"/>
  <use xlink:href="#glyph4-8" x="210.724608" y="232.794"/>
  <use xlink:href="#glyph4-7" x="212.272792" y="232.794"/>
  <use xlink:href="#glyph4-9" x="216.150225" y="232.794"/>
  <use xlink:href="#glyph4-10" x="220.027657" y="232.794"/>
</g>
<g style="fill:rgb(50%,50%,50%);fill-opacity:1;">
  <use xlink:href="#glyph4-11" x="222.524278" y="232.794"/>
</g>
<g style="fill:rgb(50%,50%,50%);fill-opacity:1;">
  <use xlink:href="#glyph4-12" x="228.340427" y="232.794"/>
  <use xlink:href="#glyph4-13" x="230.279143" y="232.794"/>
  <use xlink:href="#glyph4-14" x="231.827327" y="232.794"/>
  <use xlink:href="#glyph4-15" x="237.636502" y="232.794"/>
  <use xlink:href="#glyph4-16" x="241.513935" y="232.794"/>
</g>
</g>
</svg>
